<svg xmlns="http://www.w3.org/2000/svg" viewBox="0 0 1230.38 157.17"><defs><style>.cls-1{fill:#7f7f7f;}</style></defs><title>资源 1</title><g id="图层_2" data-name="图层 2"><g id="图层_1-2" data-name="图层 1"><path class="cls-1" d="M597.82,25.55H560.47a2.36,2.36,0,0,0-2.36,2.35V131.61a2.36,2.36,0,0,0,3.41,2.1l8.55-5.18a2.38,2.38,0,0,0,1.3-2.11l0-35.69h12.47v40.85a2.35,2.35,0,0,0,3.41,2.1l11.6-5.91a2.35,2.35,0,0,0,1.29-2.1V27.9A2.35,2.35,0,0,0,597.82,25.55Zm-14,58.55H571.08V62h12.79Zm0-28.72H571.08V32.17h12.79Z"/><path class="cls-1" d="M648.49,25.55H611.14a2.35,2.35,0,0,0-2.35,2.35V131.61a2.35,2.35,0,0,0,3.41,2.1l8.54-5.18a2.36,2.36,0,0,0,1.3-2.11l0-35.69h12.46v40.85a2.36,2.36,0,0,0,3.42,2.1l11.6-5.91a2.34,2.34,0,0,0,1.28-2.1V27.9A2.35,2.35,0,0,0,648.49,25.55Zm-14,58.55H621.76V62h12.78Zm0-28.72H621.76V32.17h12.78Z"/><path class="cls-1" d="M695.08,112.25l5.73-5.61a1.17,1.17,0,0,0-.83-2h-33.1a2.34,2.34,0,0,0-1.69.72l-5.39,5.59a1.18,1.18,0,0,0,.85,2h32.78A2.36,2.36,0,0,0,695.08,112.25Z"/><path class="cls-1" d="M725.58,125.11h0V81.91a2.35,2.35,0,0,0-2.35-2.35H674.11V37.7h31.77V63.86h-14.7a2.36,2.36,0,0,0-1.7.72l-5.39,5.59a1.17,1.17,0,0,0,.85,2h34.87a2.36,2.36,0,0,0,2.36-2.36V33.42a2.35,2.35,0,0,0-2.35-2.35H689.57l5.82-5.85a1.18,1.18,0,0,0-.83-2h-13a2.37,2.37,0,0,0-1.69.71l-7,7.15h-11a2.35,2.35,0,0,0-2.35,2.35v55a2.35,2.35,0,0,0,2.35,2.35h47.46v34.38H688.93a2.35,2.35,0,0,0-1.69.72l-5.39,5.59a1.17,1.17,0,0,0,.85,2h40.54a2.35,2.35,0,0,0,2.35-2.35Z"/><path class="cls-1" d="M691.6,59.55l7.18-6.66a2.34,2.34,0,0,0,0-3.45l-7.19-6.65a2.34,2.34,0,0,0-3.19,0l-7.19,6.66a2.34,2.34,0,0,0,0,3.45l7.19,6.65A2.35,2.35,0,0,0,691.6,59.55Z"/><path class="cls-1" d="M400.65,56.58l-9.37-4.49a2.36,2.36,0,0,0-3,.94L361.31,99.5a2.35,2.35,0,0,0,2.33,3.51l13.11-1.63a2.36,2.36,0,0,0,1.75-1.16l23.18-40.35A2.35,2.35,0,0,0,400.65,56.58Z"/><path class="cls-1" d="M499.41,53a2.36,2.36,0,0,0-3.06-.94L487,56.58a2.35,2.35,0,0,0-1,3.29l23.18,40.35a2.36,2.36,0,0,0,1.75,1.16L524,103a2.35,2.35,0,0,0,2.33-3.51Z"/><path class="cls-1" d="M451.14,23.1H436.51a2.36,2.36,0,0,0-2.36,2.35V131.72a2.36,2.36,0,0,0,3.29,2.16l14.62-6.28a2.35,2.35,0,0,0,1.42-2.16v-100A2.34,2.34,0,0,0,451.14,23.1Z"/><path class="cls-1" d="M928.77,66.5l-39-4a2.37,2.37,0,0,1-1.93-1.42l-3.16-7.39a2.36,2.36,0,0,1,2.41-3.27L930,54.82a2.36,2.36,0,0,1,2.11,2.58l-.72,7A2.35,2.35,0,0,1,928.77,66.5Z"/><path class="cls-1" d="M928.48,42.33,887.19,38.1a2.32,2.32,0,0,1-1.9-1.37l-3.37-7.41A2.36,2.36,0,0,1,884.31,26l45.37,4.64a2.35,2.35,0,0,1,2.1,2.59l-.71,7A2.36,2.36,0,0,1,928.48,42.33Z"/><path class="cls-1" d="M929.51,85.17l-28.91,46a2.35,2.35,0,0,1-1.86,1.1L886,133a2.36,2.36,0,0,1-2.13-3.61l32.83-52.27a2.35,2.35,0,0,1,3.25-.74l8.79,5.51A2.36,2.36,0,0,1,929.51,85.17Z"/><path class="cls-1" d="M1034.54,122.39H960.19V34.07h74.14a2.36,2.36,0,0,0,1.65-4l-6.42-6.26a2.35,2.35,0,0,0-1.64-.67H943.21a2.35,2.35,0,0,0-2.35,2.35V131.61a2.35,2.35,0,0,0,2.35,2.35h98.35a2.35,2.35,0,0,0,1.65-4l-7-6.86A2.36,2.36,0,0,0,1034.54,122.39Z"/><path class="cls-1" d="M152.15,73h65.43c4.37,0,6.62-1.08,9.61-4,10.3-10,37.9-37.31,51.67-51.55C281,15.19,284.29,11,282.3,5.93c-1.77-4.51-6.66-7.62-13.6-4.92C254.06,6.7,155.36,50.68,152.15,52c-2.68,1.11-5.08,2.85-5.08,6.74v8.56a6,6,0,0,0,.36,2.54,5,5,0,0,0,4.72,3.1m126.71,66.83c-13.77-14.24-41.37-41.52-51.67-51.55-3-2.91-5.24-4-9.61-4H152.15a5,5,0,0,0-4.72,3.11,5.93,5.93,0,0,0-.36,2.54v8.55c0,3.89,2.4,5.64,5.08,6.74,3.21,1.32,101.91,45.31,116.55,51,6.94,2.7,11.83-.41,13.6-4.92,2-5.08-1.31-9.26-3.44-11.47"/><path class="cls-1" d="M130.77,52C127.55,50.68,28.85,6.7,14.21,1,7.27-1.69,2.38,1.41.61,5.92c-2,5.09,1.31,9.27,3.45,11.48C17.82,31.63,45.42,58.92,55.72,68.94c3,2.92,5.24,4,9.61,4h65.44a5,5,0,0,0,4.71-3.11,6,6,0,0,0,.36-2.54V58.74c0-3.88-2.39-5.63-5.07-6.74"/><path class="cls-1" d="M130.77,84.22H65.33c-4.37,0-6.61,1.09-9.61,4-10.3,10-37.9,37.31-51.66,51.54C1.92,142-1.37,146.16.61,151.25c1.77,4.51,6.66,7.61,13.6,4.92,14.64-5.69,113.34-49.68,116.56-51,2.68-1.11,5.07-2.86,5.07-6.74V89.87a6,6,0,0,0-.36-2.54,5,5,0,0,0-4.71-3.11"/><path class="cls-1" d="M803.64,135.75h0a3.4,3.4,0,0,1-3.39-3.4V28.94a3.39,3.39,0,0,1,3.39-3.39h0a3.39,3.39,0,0,1,3.4,3.39V132.35A3.4,3.4,0,0,1,803.64,135.75Z"/><path class="cls-1" d="M1228.65,127.32,1161,78.12a2.38,2.38,0,0,1-1-1.91v-48a2.36,2.36,0,0,0-2.35-2.36h-13.47a2.36,2.36,0,0,0-2.35,2.36V76.21a2.38,2.38,0,0,1-1,1.91l-67.65,49.2a2.36,2.36,0,0,0,1.39,4.27h16.14a2.4,2.4,0,0,0,1.39-.45l57.4-41.76a2.33,2.33,0,0,1,2.77,0l57.41,41.76a2.35,2.35,0,0,0,1.38.45h16.14A2.36,2.36,0,0,0,1228.65,127.32Z"/><path class="cls-1" d="M1215.88,25.55H1082.83a2.36,2.36,0,0,0-2.36,2.35V33a2.36,2.36,0,0,0,2.36,2.35h136.23a2.36,2.36,0,0,0,2-3.6l-3.18-5.12A2.35,2.35,0,0,0,1215.88,25.55Z"/><path class="cls-1" d="M1073.87,75.43H1228a2.36,2.36,0,0,0,1.94-3.69l-4.82-7a2.33,2.33,0,0,0-1.94-1H1073.87a2.36,2.36,0,0,0-2.36,2.35v7A2.36,2.36,0,0,0,1073.87,75.43Z"/></g></g></svg>