<?xml version="1.0" encoding="UTF-8"?>
<svg width="170px" height="57px" viewBox="0 0 170 57" version="1.1" xmlns="http://www.w3.org/2000/svg" xmlns:xlink="http://www.w3.org/1999/xlink">
    <!-- Generator: sketchtool 48.2 (47327) - http://www.bohemiancoding.com/sketch -->
    <title>0B49FAA9-4673-47CF-8BB4-9ABA58E9B009-78987-0001C0607C5AC8F6</title>
    <desc>Created with sketchtool.</desc>
    <defs>
        <polygon id="path-1" points="0 0.200975962 4.87528125 0.200975962 4.87528125 8.41696154 0 8.41696154"></polygon>
        <polygon id="path-3" points="0.211519231 0.206942308 5.08774038 0.206942308 5.08774038 8.42415385 0.211519231 8.42415385"></polygon>
        <polygon id="path-5" points="0.14715625 0.22202792 92.2916514 0.22202792 92.2916514 22.8846154 0.14715625 22.8846154"></polygon>
        <polygon id="path-7" points="0.319975962 0.329783654 92.4632452 0.329783654 92.4632452 22.992067 0.319975962 22.992067"></polygon>
        <polygon id="path-9" points="0 56.473101 169.77524 56.473101 169.77524 0.408653846 0 0.408653846"></polygon>
    </defs>
    <g id="HomeV3a" stroke="none" stroke-width="1" fill="none" fill-rule="evenodd" transform="translate(-22.000000, -54.000000)">
        <g id="HEADER">
            <g id="nav-logo" transform="translate(22.000000, 54.000000)">
                <path d="M17.8119952,12.7614832 C17.8414183,11.6552572 17.91375,10.2858582 18.030625,8.6528774 C17.3543029,10.5273726 16.8921154,11.8979976 16.6436538,12.7614832 L17.8119952,12.7614832 Z M20.7371394,6.5013149 L20.9210337,16.2211466 L17.4572837,16.2211466 L17.5884615,14.4810986 L16.3498317,14.4810986 L15.8463702,16.2211466 L12.3401202,16.2211466 L15.8198077,6.5013149 L20.7371394,6.5013149 Z" id="Fill-1" fill="#EE3D42"></path>
                <path d="M26.5405553,6.50119231 L26.3129351,7.75085577 L22.9631995,7.75085577 L23.1887764,6.50119231 L26.5405553,6.50119231 Z M26.2218053,8.26085577 L24.7837524,16.2214327 L21.4336082,16.2214327 L22.8712524,8.26085577 L26.2218053,8.26085577 Z" id="Fill-3" fill="#EE3D42"></path>
                <path d="M50.6136178,12.4314543 C50.0480409,12.7171034 49.7072236,12.9573918 49.5891226,13.1506851 C49.4734736,13.3435697 49.3819351,13.6214543 49.3161418,13.9847476 C49.2417668,14.3983053 49.2290986,14.6667909 49.2789543,14.7873438 C49.3288101,14.9083053 49.459988,14.9687861 49.6716707,14.9687861 C49.8727284,14.9687861 50.0116707,14.9209736 50.0893149,14.8265745 C50.1677764,14.7325841 50.2429688,14.4833053 50.3161178,14.0803726 L50.6136178,12.4314543 Z M49.7950841,11.3387139 L46.7244591,11.3387139 L46.8221274,10.8054207 C46.9324639,10.189988 47.1139063,9.7143149 47.3664543,9.38126202 C47.6169591,9.04820913 48.0525841,8.75356971 48.6741466,8.4969351 C49.2961178,8.24070913 50.0672476,8.11198317 50.9863101,8.11198317 C52.0892668,8.11198317 52.8943149,8.2578726 53.400637,8.54842548 C53.9073678,8.83856971 54.1799399,9.19409856 54.2171274,9.61664663 C54.2534976,10.0383774 54.1533774,10.9075841 53.9151322,12.2238582 L53.1934495,16.2213101 L50.0153486,16.2213101 L50.1432572,15.5163822 C49.8927524,15.8003966 49.598113,16.0137139 49.2572957,16.1555168 C48.9185216,16.298137 48.5303005,16.3700601 48.0950841,16.3700601 C47.526238,16.3700601 47.0264543,16.2511418 46.5932813,16.0128966 C46.1613341,15.7730168 46.0187139,15.2519832 46.1633774,14.4461178 L46.2827043,13.7914543 C46.3897716,13.195637 46.590012,12.7873918 46.8809736,12.5720312 C47.1731611,12.3566707 47.8441707,12.1037139 48.8944111,11.8135697 C50.0210697,11.5021755 50.6307812,11.2913101 50.7268149,11.1826082 C50.819988,11.0747236 50.8984495,10.8548678 50.9585216,10.5214062 C51.0341226,10.1033534 51.0422957,9.83078125 50.9826322,9.7036899 C50.9241947,9.57741587 50.7995553,9.51489183 50.6083053,9.51489183 C50.3917187,9.51489183 50.2458293,9.56638221 50.1739063,9.67344952 C50.1028005,9.78010817 50.0263822,10.0563582 49.9458774,10.5009736 L49.7950841,11.3387139 Z" id="Fill-5" fill="#EE3D42"></path>
                <path d="M80.8863269,10.569137 C80.9750048,10.0754832 81.0056538,9.77430529 80.9778654,9.67050721 C80.9480337,9.56589183 80.8254375,9.5148101 80.607625,9.5148101 C80.3947163,9.5148101 80.246375,9.57488221 80.1638269,9.69461779 C80.0816875,9.81517067 79.9979135,10.1065409 79.9141394,10.569137 L79.3158702,13.8833197 C79.2284183,14.3663486 79.2059423,14.6675264 79.2480337,14.787262 C79.2897163,14.9082236 79.417625,14.969113 79.6297163,14.969113 C79.8364952,14.969113 79.9754375,14.9131274 80.0469519,14.8027909 C80.1164231,14.692863 80.1899808,14.4247861 80.2680337,13.9985601 L80.8863269,10.569137 Z M80.3865433,8.26065144 L80.205101,8.96108413 C80.545101,8.6762524 80.903899,8.4637524 81.278226,8.32317548 C81.6541875,8.18341587 82.0464952,8.11190144 82.4596442,8.11190144 C82.965149,8.11190144 83.3836106,8.21365625 83.7138029,8.41553125 C84.0456298,8.61904087 84.2327933,8.85238221 84.2757019,9.11596394 C84.3190192,9.37913702 84.2842837,9.82988221 84.1706779,10.4604351 L83.5646442,13.8179351 C83.4334663,14.5432957 83.2830817,15.0577909 83.1110385,15.3630553 C82.9414471,15.6707716 82.6607019,15.914738 82.2720721,16.0969976 C81.881399,16.2780313 81.4335144,16.3699784 80.9288269,16.3699784 C80.5246683,16.3699784 80.1646442,16.3000986 79.8475288,16.1599303 C79.5287788,16.019762 79.2513029,15.8133918 79.0175529,15.5359159 L78.6898125,17.3462524 L75.4258942,17.3462524 L77.0670481,8.26065144 L80.3865433,8.26065144 Z" id="Fill-7" fill="#EE3D42"></path>
                <path d="M112.024238,11.0845721 L112.130079,10.4985625 C112.205272,10.0837788 112.223252,9.81570192 112.184839,9.69514904 C112.147651,9.57500481 112.033637,9.51493269 111.846474,9.51493269 C111.615584,9.51493269 111.464382,9.56519712 111.390825,9.66695192 C111.317675,9.77115865 111.239623,10.0474087 111.1583,10.4985625 L111.053276,11.0845721 L112.024238,11.0845721 Z M115.054815,12.3800048 L110.818709,12.3800048 L110.506498,14.1118798 C110.439887,14.4743558 110.434575,14.7076971 110.485248,14.8127212 C110.537964,14.9161106 110.663421,14.9688269 110.866113,14.9688269 C111.1158,14.9688269 111.297243,14.8997644 111.407988,14.7600048 C111.517099,14.6202452 111.608228,14.3505337 111.680969,13.9496442 L111.87181,12.8883702 L114.962868,12.8883702 L114.855392,13.4784663 C114.768349,13.9733462 114.655969,14.3525769 114.5252,14.6173846 C114.394022,14.8817837 114.146377,15.1649808 113.785127,15.4661587 C113.42306,15.7681538 112.99193,15.9925048 112.495007,16.1449327 C111.992772,16.2953173 111.38919,16.370101 110.678541,16.370101 C109.98669,16.370101 109.392099,16.2953173 108.888637,16.1482019 C108.387219,15.9990433 108.012483,15.7955337 107.764839,15.5380817 C107.517603,15.2810385 107.364767,14.9949808 107.309599,14.6860385 C107.250344,14.3758702 107.27568,13.9234904 107.382339,13.330125 L107.802026,11.0069279 C107.929118,10.3105817 108.15306,9.76135096 108.480392,9.35760096 C108.807315,8.95630288 109.276858,8.64940385 109.892291,8.43445192 C110.508541,8.21909135 111.192219,8.11202404 111.94169,8.11202404 C112.858709,8.11202404 113.591425,8.24197596 114.141474,8.49901923 C114.690704,8.75810577 115.04705,9.09933173 115.210921,9.52596635 C115.374382,9.95219231 115.385825,10.5512788 115.246882,11.323226 L115.054815,12.3800048 Z" id="Fill-9" fill="#EE3D42"></path>
                <path d="M59.8817644,43.0246298 C60.309625,42.6658317 60.5535913,42.3229712 60.6128462,41.9940048 C60.639,41.8517933 60.6079423,41.72225 60.5229423,41.605375 C60.435899,41.4876827 60.2985913,41.4296538 60.1057067,41.4296538 C59.9287596,41.4296538 59.7857308,41.4741971 59.6802981,41.5620577 C59.5728221,41.6515529 59.5049856,41.7868173 59.471476,41.9690769 C59.4020048,42.3499423 59.5401298,42.7026106 59.8817644,43.0246298 Z M59.9549135,46.7421538 L59.1175817,45.4508077 C58.6684712,45.7225625 58.4159231,46.015976 58.3595288,46.3302308 C58.3186635,46.5574423 58.3509471,46.727851 58.4571971,46.842274 C58.5646731,46.9562885 58.7408029,47.012274 58.9896731,47.012274 C59.2548894,47.012274 59.5760913,46.9215529 59.9549135,46.7421538 Z M64.6421731,44.7054231 L64.3454904,46.3400385 L63.3201779,46.7854712 L64.2012356,48.3914808 L61.1539038,48.3914808 L60.8437356,47.8606394 C59.7456827,48.3559279 58.7469327,48.6031635 57.8454423,48.6031635 C56.9022692,48.6031635 56.2169567,48.3694135 55.792774,47.9019135 C55.367774,47.4335962 55.2137115,46.8684279 55.3342644,46.2084519 C55.4294808,45.6800625 55.654649,45.2656875 56.0101779,44.9645096 C56.36775,44.6649663 56.8642644,44.421 57.5009471,44.2317933 C56.7232788,43.771649 56.4057548,43.1504952 56.5455144,42.3646538 C56.6681106,41.6879231 57.0730865,41.1444135 57.7604423,40.7316731 C58.4473894,40.31975 59.3292644,40.1133798 60.4032067,40.1133798 C61.3713077,40.1133798 62.0970769,40.3160721 62.5809231,40.7198221 C63.0643606,41.1239808 63.2490721,41.6380673 63.1354663,42.2645337 C63.0181827,42.9200144 62.5731587,43.5035721 61.8008029,44.0103029 L62.6757308,45.5558317 L64.6421731,44.7054231 Z" id="Fill-11" fill="#EE3D42"></path>
                <path d="M81.5051106,42.7392668 C81.5950144,42.2452043 81.6248462,41.9452524 81.5962404,41.8414543 C81.567226,41.7368389 81.4434038,41.6837139 81.226,41.6837139 C81.0135,41.6837139 80.86475,41.7437861 80.7813846,41.8639303 C80.6992452,41.9844832 80.6166971,42.2754447 80.5321058,42.7392668 L79.9346538,46.0542668 C79.8472019,46.5352524 79.8239087,46.8372476 79.8668173,46.9586178 C79.9093173,47.0779447 80.036,47.1388341 80.2489087,47.1388341 C80.4565048,47.1388341 80.5938125,47.0840745 80.664101,46.9733293 C80.7356154,46.8625841 80.8099904,46.5953245 80.8864087,46.1678726 L81.5051106,42.7392668 Z M81.0057356,40.4320072 L80.8230673,41.1308053 C81.163476,40.8471995 81.5226827,40.6334736 81.8974183,40.4937139 C82.2717452,40.3527284 82.6656875,40.2828486 83.0784279,40.2828486 C83.5839327,40.2828486 84.0015769,40.3854207 84.3325865,40.5860697 C84.6644135,40.7895793 84.8515769,41.022512 84.8936683,41.2856851 C84.9382115,41.5509014 84.903476,41.9979687 84.7902788,42.6305649 L84.1834279,45.9876562 C84.0530673,46.7117909 83.9010481,47.228738 83.7306394,47.5331851 C83.5602308,47.8404928 83.277851,48.0836418 82.8892212,48.2675361 C82.5001827,48.4485697 82.0514808,48.5384736 81.5463846,48.5384736 C81.1446779,48.5384736 80.7834279,48.4694111 80.4650865,48.3300601 C80.1475625,48.1898918 79.8709038,47.9814784 79.6363365,47.7060457 L79.3081875,49.5159736 L76.0438606,49.5159736 L77.6854231,40.4320072 L81.0057356,40.4320072 Z" id="Fill-13" fill="#EE3D42"></path>
                <path d="M89.8918726,43.2546611 L89.9989399,42.6682428 C90.0741322,42.2546851 90.0912957,41.9853822 90.0536995,41.8664639 C90.0140601,41.7438678 89.9012716,41.6837957 89.7145168,41.6837957 C89.4836274,41.6837957 89.3307909,41.7344688 89.2592764,41.8374495 C89.1836755,41.9392043 89.1076659,42.2162716 89.0255264,42.6682428 L88.9192764,43.2546611 L89.8918726,43.2546611 Z M92.9244928,44.5513197 L88.6855264,44.5513197 L88.3733149,46.2815601 C88.3091563,46.6440361 88.3001659,46.879012 88.3541082,46.9811755 C88.4047812,47.0870168 88.5318726,47.1389159 88.7341563,47.1389159 C88.9850697,47.1389159 89.1652861,47.0694447 89.2748053,46.9292764 C89.3855505,46.7903341 89.474637,46.5198053 89.5477861,46.1201418 L89.7390361,45.0580505 L92.8309111,45.0580505 L92.7230264,45.6493726 C92.6343486,46.1426178 92.5256466,46.5222572 92.3920168,46.7866563 C92.2616563,47.0530986 92.0144207,47.335887 91.6531707,47.6386995 C91.291512,47.9374255 90.8603822,48.164637 90.3618245,48.314613 C89.8620409,48.4637716 89.2572332,48.5385553 88.5453582,48.5385553 C87.8535072,48.5385553 87.2585072,48.4662236 86.7566803,48.3182909 C86.2528101,48.1691322 85.8784832,47.9672572 85.6328822,47.7085793 C85.3856466,47.4507188 85.2328101,47.165887 85.1751899,46.8557188 C85.1179784,46.5443245 85.1437236,46.0943966 85.2503822,45.5014399 L85.6696611,43.1770168 C85.7959351,42.480262 86.0223293,41.9306226 86.3476178,41.5293245 C86.6745409,41.1259832 87.1449014,40.8186755 87.7615601,40.6053582 C88.3782188,40.3912236 89.0598534,40.2829303 89.8093245,40.2829303 C90.7255264,40.2829303 91.4606947,40.4120649 92.0099255,40.6703341 C92.5583389,40.9281947 92.9155024,41.270238 93.077738,41.6964639 C93.2399736,42.1214639 93.2534591,42.7221851 93.1136995,43.4929063 L92.9244928,44.5513197 Z" id="Fill-15" fill="#EE3D42"></path>
                <path d="M101.386488,43.445625 L98.3166803,43.445625 L98.4854543,42.5163462 C98.5434832,42.1922837 98.5479784,41.9728365 98.4993486,41.8567788 C98.4486755,41.7407212 98.3305745,41.6835096 98.1409591,41.6835096 C97.9517524,41.6835096 97.8160793,41.7345913 97.7327139,41.8355288 C97.6489399,41.9352404 97.5770168,42.1604087 97.5128582,42.510625 L96.8324495,46.2829087 C96.7809591,46.5685577 96.7907668,46.7822837 96.8639159,46.9253125 C96.9337957,47.0683413 97.0649736,47.1390385 97.2545889,47.1390385 C97.4768966,47.1390385 97.6391322,47.0646635 97.7461995,46.9163221 C97.8499976,46.7671635 97.9415361,46.4868269 98.0150938,46.0749038 L98.1875457,45.1223317 L101.084084,45.1223317 C100.963531,45.7586058 100.847474,46.2359135 100.732642,46.5530288 C100.618219,46.8701442 100.379974,47.1958413 100.014637,47.5297115 C99.6513437,47.8631731 99.2075457,48.1161298 98.6881466,48.2853125 C98.1683389,48.4553125 97.5467764,48.5386779 96.8255024,48.5386779 C95.9043966,48.5386779 95.1966082,48.4234375 94.7005024,48.1876442 C94.203988,47.9534856 93.8831947,47.6253365 93.7368966,47.2044231 C93.5893726,46.7810577 93.5861034,46.1819712 93.7283149,45.4043029 L94.1353341,43.1415865 C94.2567043,42.4652644 94.4401899,41.9540385 94.6861995,41.6111779 C94.9309832,41.2654567 95.3772332,40.958149 96.0237236,40.6888462 C96.6698053,40.418726 97.4192764,40.2830529 98.2770409,40.2830529 C99.1266322,40.2830529 99.8286995,40.4166827 100.383243,40.6872115 C100.938195,40.9552885 101.276969,41.2952885 101.402425,41.7035337 C101.527882,42.1142308 101.521752,42.6945192 101.386488,43.445625" id="Fill-17" fill="#EE3D42"></path>
                <path d="M106.585423,38.6691154 L106.35862,39.9216394 L103.008885,39.9216394 L103.235687,38.6691154 L106.585423,38.6691154 Z M106.26749,40.4316394 L104.830255,48.391399 L101.479702,48.391399 L102.916529,40.4316394 L106.26749,40.4316394 Z" id="Fill-19" fill="#EE3D42"></path>
                <path d="M110.630483,44.6013798 C110.065724,44.8874375 109.724089,45.1260913 109.608031,45.3210192 C109.48993,45.5143125 109.398392,45.7930144 109.335459,46.1542644 C109.259041,46.5690481 109.24719,46.8375337 109.297046,46.9589038 C109.345267,47.0778221 109.476445,47.1387115 109.688127,47.1387115 C109.889185,47.1387115 110.028536,47.0917163 110.105363,46.9965 C110.184642,46.9016923 110.261877,46.6540481 110.332575,46.2507067 L110.630483,44.6013798 Z M109.81195,43.5098654 L106.741733,43.5098654 L106.839401,42.9769808 C106.950147,42.3586875 107.131589,41.8850577 107.381276,41.5515962 C107.633416,41.2185433 108.070675,40.9226779 108.691012,40.6664519 C109.314209,40.4114519 110.083704,40.2831346 111.00481,40.2831346 C112.105315,40.2831346 112.911589,40.4273894 113.418728,40.718351 C113.926685,41.0084952 114.197214,41.3627981 114.232767,41.7869808 C114.269954,42.2078942 114.169834,43.0787356 113.932815,44.3937837 L113.209906,48.3912356 L110.031805,48.3912356 L110.159714,47.6850817 C109.910026,47.9695048 109.614978,48.185274 109.273752,48.3262596 C108.934978,48.4684712 108.547983,48.5387596 108.112767,48.5387596 C107.544738,48.5387596 107.042911,48.42025 106.610964,48.1820048 C106.178608,47.9437596 106.035171,47.4223173 106.18106,46.6168606 L106.29957,45.9605625 C106.407046,45.3647452 106.606469,44.9585433 106.899065,44.7411394 C107.1888,44.5253702 107.862262,44.2720048 108.913728,43.9830865 C110.037935,43.6716923 110.648464,43.4620529 110.742863,43.3541683 C110.838488,43.245875 110.915315,43.0247933 110.976613,42.6913317 C111.051397,42.2728702 111.05957,42.0007067 111.000315,41.8744327 C110.939017,41.7469327 110.817238,41.6835913 110.625579,41.6835913 C110.409401,41.6835913 110.264738,41.7379423 110.192406,41.8450096 C110.119257,41.9500337 110.043248,42.2254663 109.963969,42.6737596 L109.81195,43.5098654 Z" id="Fill-21" fill="#EE3D42"></path>
                <polygon id="Fill-23" fill="#EE3D42" points="119.456834 38.6691154 117.70044 48.391399 114.34907 48.391399 116.105055 38.6691154"></polygon>
                <path d="M148.899649,42.6183462 C148.974024,42.207649 148.991596,41.9501971 148.950322,41.8447644 C148.911909,41.7376971 148.793399,41.6837548 148.600514,41.6837548 C148.408856,41.6837548 148.269096,41.7376971 148.186139,41.8447644 C148.101957,41.9501971 148.022678,42.207649 147.94912,42.6183462 L147.295683,46.2288029 C147.228255,46.607625 147.216404,46.8536346 147.258904,46.9672404 C147.303038,47.0824808 147.419913,47.138875 147.607486,47.138875 C147.801596,47.138875 147.938087,47.0873846 148.019,46.9823606 C148.099096,46.8789712 148.172245,46.6521683 148.233952,46.3064471 L148.899649,42.6183462 Z M152.054048,43.2260144 L151.700562,45.1773365 C151.571837,45.8932981 151.429216,46.4196442 151.271885,46.7531058 C151.114144,47.0886106 150.849745,47.3995962 150.481139,47.6897404 C150.110899,47.9798846 149.663832,48.1948365 149.141163,48.3329615 C148.618087,48.4702692 148.032486,48.5385144 147.389264,48.5385144 C146.664721,48.5385144 146.064817,48.4821202 145.585875,48.3627933 C145.106115,48.245101 144.749361,48.0665192 144.514793,47.8286827 C144.280635,47.5912548 144.133928,47.3023365 144.078351,46.9631538 C144.019096,46.6264231 144.053423,46.118875 144.174793,45.4413269 L144.54299,43.3992837 C144.677437,42.6596202 144.889937,42.0809663 145.179264,41.6637308 C145.469817,41.2477212 145.918928,40.912625 146.525779,40.6608942 C147.128135,40.4099808 147.868207,40.2828894 148.740274,40.2828894 C149.47299,40.2828894 150.088014,40.3629856 150.582077,40.5256298 C151.079409,40.6890913 151.445154,40.8999567 151.684216,41.1594519 C151.921644,41.4205817 152.069168,41.6878413 152.122293,41.965726 C152.179913,42.24075 152.154986,42.6624808 152.054048,43.2260144 Z" id="Fill-25" fill="#EE3D42"></path>
                <polygon id="Fill-27" fill="#EE3D42" points="154.72738 46.4173558 154.36899 48.3915625 151.906034 48.3915625 152.264014 46.4173558"></polygon>
                <path d="M76.0629038,23.8164688 C39.2493221,16.6593053 7.11278365,23.202262 7.11278365,23.202262 L7.11278365,32.4026947 C7.11278365,32.4026947 34.3683606,40.5823101 76.2684567,32.4026947 C76.0629038,30.5621178 76.0629038,26.8821899 76.0629038,23.8164688" id="Fill-29" fill="#004FA2"></path>
                <g id="Group-33" transform="translate(0.000000, 23.372139)">
                    <mask id="mask-2" fill="white">
                        <use xlink:href="#path-1"></use>
                    </mask>
                    <g id="Clip-32"></g>
                    <path d="M1.21578606,1.24467788 C-0.392675481,1.68602404 -0.418012019,6.78357212 1.21578606,7.4088125 C1.7617476,7.54734615 4.87528125,8.41696154 4.87528125,8.41696154 L4.87528125,0.200975962 C4.87528125,0.200975962 1.95544952,1.04035096 1.21578606,1.24467788" id="Fill-31" fill="#004FA2" mask="url(#mask-2)"></path>
                </g>
                <path d="M93.7108654,23.8228846 C130.524856,16.6673558 162.661394,23.2082692 162.661394,23.2082692 L162.661394,32.4087019 C162.661394,32.4087019 135.407452,40.588726 93.5085817,32.4087019 C93.7108654,30.5697596 93.7108654,26.8902404 93.7108654,23.8228846" id="Fill-34" fill="#094FA3"></path>
                <g id="Group-38" transform="translate(164.687500, 23.372139)">
                    <mask id="mask-4" fill="white">
                        <use xlink:href="#path-3"></use>
                    </mask>
                    <g id="Clip-37"></g>
                    <path d="M3.87264904,1.25187019 C5.47988462,1.69525962 5.50562981,6.79035577 3.87264904,7.41682212 C3.32546154,7.55617308 0.211519231,8.42415385 0.211519231,8.42415385 L0.211519231,0.206942308 C0.211519231,0.206942308 3.13216827,1.04672596 3.87264904,1.25187019" id="Fill-36" fill="#004FA2" mask="url(#mask-4)"></path>
                </g>
                <path d="M85.2621923,18.6542308 L82.3869038,21.4375721 L83.7489471,21.5344231 L81.4805096,24.2703606 L82.7918798,24.3177644 L79.9664471,27.2948077 L81.7829135,27.2948077 L78.7568317,30.5092788 L80.8740673,30.5092788 L77.3943798,34.2059615 L80.7236827,34.1585577 L80.0179375,35.1671154 L84.1522885,34.253774 L84.0023125,37.0853365 L86.5723365,36.9893029 L86.5228894,34.253774 L90.6086106,35.0220433 L89.9016394,34.0617067 L93.1300048,34.1585577 L89.6503173,30.4622837 L91.5664952,30.5092788 L88.5404135,27.1975481 L90.5571202,27.1501442 L87.5330817,24.3177644 L89.1464471,24.2703606 L86.9769038,21.5344231 L88.237601,21.4870192 L85.2621923,18.6542308 Z M96.416399,28.2870192 C96.416399,34.4560577 91.4054856,39.4551202 85.2221442,39.4551202 C79.0412548,39.4551202 74.0311587,34.4560577 74.0311587,28.2870192 C74.0311587,22.1192067 79.0412548,17.1189183 85.2221442,17.1189183 C91.4054856,17.1189183 96.416399,22.1192067 96.416399,28.2870192 Z" id="Fill-39" fill="#004FA2"></path>
                <g id="Group-43" transform="translate(27.379808, 33.588486)">
                    <mask id="mask-6" fill="white">
                        <use xlink:href="#path-5"></use>
                    </mask>
                    <g id="Clip-42"></g>
                    <path d="M9.9429976,0.380088942 C17.2472764,22.6341514 69.7519399,24.2422043 92.2916514,17.5349688 C82.6041034,20.8985986 70.6660986,22.8846562 57.753863,22.8846562 C29.1574928,22.8846562 5.33951202,13.1439832 0.14715625,0.251771635 C3.22227644,0.215401442 7.97614663,0.174536058 9.9429976,0.380088942" id="Fill-41" fill="#004FA2" mask="url(#mask-6)"></path>
                </g>
                <g id="Group-46" transform="translate(50.264423, 0.078870)">
                    <mask id="mask-8" fill="white">
                        <use xlink:href="#path-7"></use>
                    </mask>
                    <g id="Clip-45"></g>
                    <path d="M82.6674038,22.8333293 C75.363125,0.583353365 22.8600962,-1.02674279 0.319975962,5.67926683 C10.007524,2.31604567 21.9459375,0.329579327 34.8561298,0.329579327 C63.4529087,0.329579327 87.2712981,10.0706611 92.4632452,22.9620553 C89.3909856,22.9988341 84.6350721,23.0396995 82.6674038,22.8333293" id="Fill-44" fill="#004FA2" mask="url(#mask-8)"></path>
                </g>
                <path d="M19.9905288,29.1393486 L20.6039183,29.0817284 C20.63375,29.3297813 20.7007692,29.5336995 20.8078365,29.6930745 C20.9124519,29.8520409 21.0775481,29.9815841 21.3006731,30.0792524 C21.5246154,30.1773293 21.7759375,30.2263678 22.0554567,30.2263678 C22.3035096,30.2263678 22.5213221,30.1891803 22.7125721,30.113988 C22.9013702,30.0404303 23.0435817,29.9374495 23.1371635,29.8079063 C23.2295192,29.678363 23.2756971,29.5361514 23.2756971,29.3841322 C23.2756971,29.2296611 23.2295192,29.0948053 23.1379808,28.9795649 C23.0484856,28.8655505 22.8989183,28.7678822 22.6941827,28.6881947 C22.5617788,28.6375216 22.271226,28.5561995 21.8208894,28.4483149 C21.3697356,28.3392043 21.0538462,28.2358149 20.8724038,28.1393726 C20.6374279,28.0155505 20.4608894,27.8610793 20.3476923,27.6780024 C20.23,27.4945168 20.1727885,27.2897813 20.1727885,27.0613438 C20.1727885,26.8112476 20.2426683,26.5774976 20.3848798,26.3609111 C20.5258654,26.1439159 20.7314183,25.9784111 21.0031731,25.8664399 C21.2732933,25.7536514 21.5744712,25.6972572 21.9058894,25.6972572 C22.271226,25.6972572 22.5920192,25.7561034 22.8719471,25.8750216 C23.1502404,25.9918966 23.3647837,26.1668005 23.5135337,26.3944207 C23.6651442,26.6240841 23.7452404,26.8843966 23.7570913,27.1733149 L23.1257212,27.2231707 C23.0930288,26.9121851 22.9790144,26.6768005 22.7869471,26.5161995 C22.5936538,26.3572332 22.3084135,26.2779543 21.931226,26.2779543 C21.538101,26.2779543 21.2524519,26.3498774 21.0726442,26.4953582 C20.8928365,26.6408389 20.8029327,26.8149255 20.8029327,27.0192524 C20.8029327,27.1974255 20.8670913,27.3429063 20.9945913,27.4585553 C21.1184135,27.5717524 21.4457452,27.6910793 21.9733173,27.8104063 C22.5004808,27.9309591 22.8633654,28.0359832 23.0615625,28.125887 C23.3492548,28.2570649 23.5621635,28.4250216 23.6998798,28.6285313 C23.8363702,28.8312236 23.9058413,29.0653822 23.9058413,29.3297813 C23.9058413,29.5925457 23.830649,29.8397813 23.6802644,30.0718966 C23.5311058,30.3044207 23.3153365,30.484637 23.0354087,30.6141803 C22.7538462,30.7429063 22.438774,30.8078822 22.088149,30.8078822 C21.6423077,30.8078822 21.2692067,30.7429063 20.9692548,30.6129543 C20.6672596,30.4817764 20.4322837,30.2856226 20.2610577,30.0261274 C20.0890144,29.7645889 19.9991106,29.4691322 19.9905288,29.1393486" id="Fill-47" fill="#FFFFFF"></path>
                <mask id="mask-10" fill="white">
                    <use xlink:href="#path-9"></use>
                </mask>
                <g id="Clip-50"></g>
                <polygon id="Fill-49" fill="#FFFFFF" mask="url(#mask-10)" points="29.7565385 30.7250481 30.4124279 30.7250481 30.4124279 25.7803365 29.7565385 25.7803365"></polygon>
                <polygon id="Fill-51" fill="#FFFFFF" mask="url(#mask-10)" points="36.3805721 30.7246803 36.3805721 25.7799688 37.054851 25.7799688 39.65675 29.6646322 39.65675 25.7799688 40.2868942 25.7799688 40.2868942 30.7246803 39.6117981 30.7246803 37.0115337 26.8408341 37.0115337 30.7246803"></polygon>
                <path d="M49.7284736,28.9917019 L50.383137,29.1572067 C50.2470553,29.6937692 50.0002284,30.1028317 49.6434736,30.3843942 C49.2871274,30.6659567 48.8506851,30.8081683 48.3370072,30.8081683 C47.8033053,30.8081683 47.3709495,30.6994663 47.0354447,30.4816538 C46.7019832,30.26425 46.4482091,29.9508125 46.2733053,29.5388894 C46.1000361,29.1277837 46.0121755,28.6868462 46.0121755,28.214851 C46.0121755,27.7003558 46.1114784,27.2512452 46.3076322,26.8695625 C46.5054207,26.4862452 46.7841226,26.1944663 47.1478245,25.9954519 C47.5103005,25.7968462 47.9111899,25.6971346 48.3468149,25.6971346 C48.842512,25.6971346 49.2577043,25.8234087 49.5952524,26.0755481 C49.9328005,26.3252356 50.1677764,26.6795385 50.3009976,27.1335529 L49.6532813,27.2867981 C49.5384495,26.9255481 49.3733534,26.6640096 49.1539062,26.5005481 C48.9352764,26.3354519 48.661887,26.2537212 48.3312861,26.2537212 C47.950012,26.2537212 47.6333053,26.343625 47.3778966,26.5275192 C47.1216707,26.7093702 46.9434976,26.9541538 46.8401082,27.2606442 C46.7367188,27.5687692 46.6835938,27.88425 46.6835938,28.212399 C46.6835938,28.6320865 46.7453005,29.0006923 46.8683053,29.3137212 C46.9917188,29.6287933 47.1813341,29.8637692 47.440012,30.0182404 C47.6986899,30.1747548 47.9798438,30.2515817 48.2802043,30.2515817 C48.6475841,30.2515817 48.9573437,30.1453317 49.2123438,29.933649 C49.4657091,29.7227837 49.6389784,29.4081202 49.7284736,28.9917019" id="Fill-52" fill="#FFFFFF" mask="url(#mask-10)"></path>
                <polygon id="Fill-53" fill="#FFFFFF" mask="url(#mask-10)" points="56.0426659 30.7246803 56.0426659 25.7799688 59.6012236 25.7799688 59.6012236 26.3606659 56.6985553 26.3606659 56.6985553 27.8796322 59.4193726 27.8796322 59.4193726 28.459512 56.6985553 28.459512 56.6985553 30.1427572 59.7172812 30.1427572 59.7172812 30.7246803"></polygon>
                <path d="M116.85424,30.7246803 L116.249024,30.7246803 L116.249024,26.8584063 C116.1015,26.9981659 115.909024,27.1375168 115.67037,27.2772764 C115.432534,27.4162187 115.219625,27.5208341 115.028784,27.589488 L115.028784,27.0034784 C115.369601,26.845738 115.667101,26.6512187 115.923736,26.4252332 C116.176284,26.196387 116.356909,25.9765313 116.463976,25.7632139 L116.85424,25.7632139 L116.85424,30.7246803 Z" id="Fill-54" fill="#FFFFFF" mask="url(#mask-10)"></path>
                <path d="M125.806334,27.4005673 C125.806334,27.0548462 125.713161,26.7794135 125.530493,26.5750865 C125.345781,26.3715769 125.1247,26.2698221 124.863161,26.2698221 C124.592632,26.2698221 124.357656,26.37975 124.159868,26.5987885 C123.962488,26.8182356 123.865228,27.1026587 123.865228,27.4508317 C123.865228,27.7654952 123.956767,28.0184519 124.144339,28.2154231 C124.333546,28.4111683 124.566478,28.5092452 124.845589,28.5092452 C125.125925,28.5092452 125.35518,28.4111683 125.535397,28.2154231 C125.714387,28.0184519 125.806334,27.7487404 125.806334,27.4005673 M123.325397,29.5803269 L123.906911,29.5296538 C123.953906,29.8026346 124.048714,30.0008317 124.188474,30.1242452 C124.328233,30.24725 124.505998,30.309774 124.72381,30.309774 C124.908522,30.309774 125.073618,30.2664567 125.215421,30.1810481 C125.358041,30.0944135 125.472055,29.982851 125.561142,29.8398221 C125.64982,29.6955673 125.72256,29.5035 125.783858,29.2607596 C125.845156,29.0180192 125.874171,28.7711923 125.874171,28.5190529 C125.874171,28.4924904 125.872536,28.4512163 125.870084,28.3989087 C125.749531,28.5913846 125.586887,28.747899 125.37643,28.8688606 C125.168017,28.9885962 124.941623,29.0482596 124.698474,29.0482596 C124.290228,29.0482596 123.945325,28.8999183 123.664579,28.6036442 C123.3822,28.3069615 123.240805,27.9175144 123.240805,27.4312163 C123.240805,26.9297981 123.388329,26.5280913 123.683377,26.2224183 C123.977608,25.9163365 124.346214,25.7635 124.788786,25.7635 C125.109579,25.7635 125.401767,25.8501346 125.666166,26.0234038 C125.931791,26.1954471 126.132031,26.442274 126.270974,26.7626587 C126.40869,27.0842692 126.476526,27.5452308 126.476526,28.1520817 C126.476526,28.7838606 126.40869,29.2856875 126.270974,29.6600144 C126.134483,30.0339327 125.931791,30.3183558 125.660853,30.5145096 C125.389916,30.7082115 125.073618,30.8079231 124.709916,30.8079231 C124.324964,30.8079231 124.009483,30.6996298 123.765108,30.4842692 C123.52155,30.269726 123.374435,29.9685481 123.325397,29.5803269" id="Fill-55" fill="#FFFFFF" mask="url(#mask-10)"></path>
                <path d="M132.57307,29.1268029 C132.57307,29.3348077 132.619248,29.5338221 132.707517,29.7238462 C132.796603,29.9155048 132.921243,30.0601683 133.078166,30.1594712 C133.238358,30.26 133.405906,30.3098558 133.585305,30.3098558 C133.843983,30.3098558 134.065474,30.2060577 134.248142,30.0000962 C134.432853,29.7941346 134.523166,29.5133894 134.523166,29.1615385 C134.523166,28.8194952 134.432853,28.5510096 134.25182,28.3556731 C134.071195,28.1587019 133.840305,28.0602163 133.560377,28.0602163 C133.285762,28.0602163 133.053647,28.1587019 132.860353,28.3556731 C132.670329,28.5510096 132.57307,28.8092788 132.57307,29.1268029 M135.062589,26.9911779 L134.45819,27.0402163 C134.402204,26.8023798 134.327421,26.6291106 134.228118,26.521226 C134.063022,26.3471394 133.859512,26.2609135 133.618815,26.2609135 C133.42593,26.2609135 133.253887,26.3156731 133.10432,26.4235577 C132.916748,26.563726 132.765137,26.7676442 132.654392,27.0361298 C132.545281,27.3037981 132.486844,27.6850721 132.482757,28.1799519 C132.631099,27.9568269 132.808454,27.7913221 133.020137,27.6842548 C133.230185,27.5767788 133.453719,27.5232452 133.685425,27.5232452 C134.089993,27.5232452 134.434488,27.6707692 134.717685,27.9678606 C135.003743,28.2649519 135.146363,28.6499038 135.146363,29.1206731 C135.146363,29.4308413 135.078526,29.7173077 134.944897,29.984976 C134.809632,30.2501923 134.627373,30.4532933 134.392805,30.5955048 C134.159055,30.736899 133.893839,30.8080048 133.597156,30.8080048 C133.091651,30.8080048 132.677276,30.62125 132.3573,30.249375 C132.036916,29.8770913 131.87795,29.2649279 131.87795,28.41125 C131.87795,27.4570433 132.054897,26.763149 132.408791,26.3291587 C132.717733,25.9531971 133.133743,25.7635817 133.656002,25.7635817 C134.045858,25.7635817 134.365425,25.8726923 134.614704,26.0909135 C134.863166,26.3066827 135.012733,26.6074519 135.062589,26.9911779" id="Fill-56" fill="#FFFFFF" mask="url(#mask-10)"></path>
                <path d="M140.579334,29.4288798 L141.21806,29.3798413 C141.265464,29.688375 141.374166,29.9204904 141.544575,30.0761875 C141.714166,30.2318846 141.921762,30.3099375 142.167363,30.3099375 C142.462411,30.3099375 142.710873,30.2000096 142.910296,29.9801538 C143.10931,29.7594808 143.209022,29.4677019 143.209022,29.1031827 C143.209022,28.7586875 143.113805,28.4861154 142.922964,28.2862837 C142.730488,28.0872692 142.475079,27.9867404 142.157964,27.9867404 C141.958541,27.9867404 141.783637,28.032101 141.627531,28.1215962 C141.472243,28.210274 141.350055,28.3267404 141.26056,28.467726 L140.688445,28.3851779 L141.169839,25.8470288 L143.624623,25.8470288 L143.624623,26.4273173 L141.65532,26.4273173 L141.386425,27.7595288 C141.6827,27.5507067 141.994502,27.4473173 142.319791,27.4473173 C142.750921,27.4473173 143.116257,27.5977019 143.412531,27.8960192 C143.707579,28.1943365 143.857147,28.5788798 143.857147,29.0480144 C143.857147,29.4946731 143.727195,29.880851 143.465656,30.207774 C143.14895,30.6078462 142.716185,30.8080865 142.167363,30.8080865 C141.717844,30.8080865 141.35169,30.6805865 141.066858,30.4304904 C140.783661,30.1775337 140.619791,29.8457067 140.579334,29.4288798" id="Fill-57" fill="#FFFFFF" mask="url(#mask-10)"></path>
                <path d="M30.6466683,8.26069231 L30.348351,9.31379327 C30.9572452,8.55860096 31.7132548,8.15730288 32.6188317,8.11194231 L32.112101,10.9140817 C31.5166923,10.9140817 31.0688077,10.9749712 30.7680385,11.0959327 C30.4664519,11.214851 30.2641683,11.3828077 30.1632308,11.596125 C30.0586154,11.8114856 29.9376538,12.3035048 29.7983029,13.0754519 L29.230274,16.2212692 L25.9651298,16.2212692 L27.404,8.26069231 L30.6466683,8.26069231 Z" id="Fill-58" fill="#EE3D42" mask="url(#mask-10)"></path>
                <path d="M39.980649,11.2757404 L36.910024,11.2757404 L37.0775721,10.3456442 C37.1372356,10.0215817 37.1409135,9.80295192 37.0910577,9.68566827 C37.0420192,9.5720625 36.9226923,9.51485096 36.7347115,9.51485096 C36.5450962,9.51485096 36.4081971,9.56348077 36.3252404,9.66400962 C36.243101,9.76535577 36.1695433,9.98929808 36.1074279,10.3395144 L35.424976,14.1134327 C35.3738942,14.3986731 35.3841106,14.6132163 35.454399,14.7546106 C35.5275481,14.8976394 35.6583173,14.9691538 35.8471154,14.9691538 C36.0702404,14.9691538 36.2337019,14.8943702 36.3379087,14.7456202 C36.4433413,14.5972788 36.5340625,14.3169423 36.6096635,13.9037933 L36.7800721,12.9528558 L39.6778365,12.9528558 C39.5572837,13.5879038 39.44,14.0652115 39.3259856,14.3827356 C39.2115625,14.7006683 38.9729087,15.028 38.6083894,15.3594183 C38.2438702,15.6941058 37.8017067,15.9450192 37.2810817,16.1150192 C36.761274,16.2842019 36.1397115,16.3700192 35.4188462,16.3700192 C34.498149,16.3700192 33.7895433,16.2535529 33.2942548,16.0185769 C32.7985577,15.7844183 32.4765385,15.4570865 32.3298317,15.0345385 C32.183125,14.6119904 32.1798558,14.0124952 32.320024,13.2356442 L32.7282692,10.9708846 C32.8508654,10.2953798 33.0335337,9.78333654 33.2791346,9.44006731 C33.5247356,9.09516346 33.9705769,8.78908173 34.6170673,8.51773558 C35.2627404,8.24884135 36.0134375,8.11194231 36.8691587,8.11194231 C37.7195673,8.11194231 38.4224519,8.24843269 38.9765865,8.51610096 C39.5299038,8.78622115 39.8699038,9.12458654 39.9953606,9.53528365 C40.1204087,9.9439375 40.1159135,10.5258606 39.980649,11.2757404" id="Fill-59" fill="#EE3D42" mask="url(#mask-10)"></path>
                <path d="M44.7531947,8.26069231 L44.4556947,9.31379327 C45.0637716,8.55860096 45.8197812,8.15730288 46.7245409,8.11194231 L46.2190361,10.9140817 C45.6236274,10.9140817 45.1753341,10.9749712 44.8737476,11.0959327 C44.5729784,11.214851 44.3706947,11.3828077 44.2681226,11.596125 C44.1643245,11.8114856 44.0454062,12.3035048 43.9044207,13.0754519 L43.3368005,16.2212692 L40.0720649,16.2212692 L41.5105264,8.26069231 L44.7531947,8.26069231 Z" id="Fill-60" fill="#EE3D42" mask="url(#mask-10)"></path>
                <path d="M60.2393365,6.50119231 L60.0149856,7.73124038 C59.3484712,7.73124038 58.949625,7.75453365 58.8217163,7.79948558 C58.693399,7.84648077 58.6104423,7.97970192 58.5703942,8.19710577 L58.5238077,8.45210577 L59.8854423,8.45210577 L59.6598654,9.70626442 L58.9030385,9.70626442 L57.7261154,16.2214327 L54.4626058,16.2214327 L55.6383029,9.70626442 L54.9689279,9.70626442 L55.1949135,8.45210577 L55.8651058,8.45210577 C55.9607308,7.92616827 56.047774,7.57513462 56.1278702,7.39737019 C56.2079663,7.22124038 56.3563077,7.06268269 56.5720769,6.92414904 C56.7866202,6.78602404 57.0722692,6.68018269 57.4286154,6.60825962 C57.7845529,6.53592788 58.323976,6.50119231 59.0477019,6.50119231 L60.2393365,6.50119231 Z" id="Fill-61" fill="#EE3D42" mask="url(#mask-10)"></path>
                <path d="M64.1820288,7.20035817 L63.9556346,8.4520649 L64.8420048,8.4520649 L64.6160192,9.70622356 L63.729649,9.70622356 L62.9572933,13.9786995 C62.8624856,14.504637 62.8453221,14.7972332 62.9062115,14.8573053 C62.9695529,14.9181947 63.2662356,14.9480264 63.7987115,14.9480264 L63.5690481,16.2213918 L62.254,16.2213918 C61.5131106,16.2213918 60.9875817,16.1980986 60.6798654,16.152738 C60.3692885,16.1069688 60.1106106,16.0007188 59.8989279,15.833988 C59.6868365,15.6672572 59.5691442,15.4772332 59.5503462,15.2630986 C59.5295048,15.0493726 59.5908029,14.5455024 59.7342404,13.7531226 L60.4661394,9.70622356 L59.7526298,9.70622356 L59.9773894,8.4520649 L60.6917163,8.4520649 L60.9177019,7.20035817 L64.1820288,7.20035817 Z" id="Fill-62" fill="#EE3D42" mask="url(#mask-10)"></path>
                <path d="M75.6011659,9.45036538 L72.4471755,9.45036538 L72.5779447,8.72623077 C72.6384255,8.3895 72.6367909,8.17373077 72.5730409,8.08096635 C72.5088822,7.98942788 72.3826082,7.94406731 72.1942188,7.94406731 C71.9903005,7.94406731 71.824387,8.00454808 71.698113,8.13000481 C71.5689784,8.25423558 71.4823437,8.44425962 71.4369832,8.69721635 C71.3789543,9.02250481 71.3920313,9.26851442 71.4794832,9.43279327 C71.5628486,9.59870673 71.8460457,9.79567788 72.3315264,10.0282019 C73.7234014,10.6930817 74.5787139,11.2402692 74.8946034,11.6689471 C75.2096755,12.0972163 75.2815986,12.7878413 75.108738,13.7412308 C74.9840986,14.4343077 74.7809976,14.9459423 74.503113,15.2745 C74.2272716,15.6030577 73.7552764,15.8776731 73.088762,16.1003894 C72.4234736,16.3218798 71.6760457,16.432625 70.8460697,16.432625 C69.9351803,16.432625 69.1812139,16.3059423 68.5833534,16.0484904 C67.9859014,15.7922644 67.6217909,15.4653413 67.4938822,15.0697644 C67.3651562,14.6717356 67.3684255,14.1073846 67.5004207,13.3771202 L67.6148437,12.7396202 L70.7721034,12.7396202 L70.5559255,13.9328894 C70.4901322,14.2998606 70.4925841,14.5360625 70.5632813,14.6419038 C70.634387,14.7465192 70.7847716,14.7996442 71.0152524,14.7996442 C71.2449159,14.7996442 71.4275841,14.7330337 71.5657091,14.6006298 C71.7009736,14.467 71.792512,14.2700288 71.8395072,14.0084904 C71.9433053,13.4335144 71.9077524,13.0567356 71.729988,12.8806058 C71.5489543,12.7028413 71.071238,12.4098365 70.2992909,12.000774 C69.5261178,11.586399 69.019387,11.2868558 68.7782813,11.0980577 C68.5384014,10.9104856 68.3573678,10.6497644 68.2372236,10.3167115 C68.117488,9.98447596 68.1027764,9.55906731 68.1967668,9.04252885 C68.3324399,8.29673558 68.5576082,7.752 68.8763582,7.40873077 C69.1930649,7.06300962 69.6548438,6.79370673 70.2596514,6.59959615 C70.8652764,6.40671154 71.5714303,6.30904327 72.378113,6.30904327 C73.259988,6.30904327 73.993113,6.41529327 74.5754447,6.62738462 C75.1585938,6.83784135 75.5210697,7.10510096 75.6645072,7.42671154 C75.808762,7.74873077 75.8103966,8.29510096 75.671863,9.06663942 L75.6011659,9.45036538 Z" id="Fill-63" fill="#EE3D42" mask="url(#mask-10)"></path>
                <path d="M88.8972091,8.26069231 L88.5988918,9.31379327 C89.2094207,8.55860096 89.9654303,8.15730288 90.8697813,8.11194231 L90.3630505,10.9140817 C89.7680505,10.9140817 89.3193486,10.9749712 89.0198053,11.0959327 C88.7186274,11.214851 88.5163438,11.3828077 88.413363,11.596125 C88.3103822,11.8114856 88.189012,12.3035048 88.0496611,13.0754519 L87.4820409,16.2212692 L84.2177139,16.2212692 L85.6545409,8.26069231 L88.8972091,8.26069231 Z" id="Fill-64" fill="#EE3D42" mask="url(#mask-10)"></path>
                <path d="M99.0558942,8.26069231 L97.6190673,16.2212692 L94.2983462,16.2212692 L94.4740673,15.5633365 C94.1986346,15.8326394 93.8831538,16.0336971 93.5292596,16.1677356 C93.1729135,16.3025913 92.7793798,16.3700192 92.34825,16.3700192 C91.8586827,16.3700192 91.4626971,16.3074952 91.1631538,16.1771346 C90.8636106,16.0496346 90.6551971,15.8800433 90.540774,15.6675433 C90.425125,15.4562692 90.3691394,15.2355962 90.3728173,15.005524 C90.3764952,14.7746346 90.4414712,14.3177596 90.5636587,13.6332644 L91.5338029,8.26069231 L94.7981298,8.26069231 L93.8173606,13.6884327 C93.7062067,14.3099952 93.664524,14.6794183 93.6947644,14.79425 C93.7258221,14.9103077 93.8533221,14.9691538 94.0805337,14.9691538 C94.3224567,14.9691538 94.4777452,14.9082644 94.5455817,14.7897548 C94.612601,14.6683846 94.7053654,14.2813894 94.8234663,13.6279519 L95.7923846,8.26069231 L99.0558942,8.26069231 Z" id="Fill-65" fill="#EE3D42" mask="url(#mask-10)"></path>
                <path d="M106.875976,11.2757404 L103.806986,11.2757404 L103.974942,10.3456442 C104.032971,10.0215817 104.03624,9.80295192 103.986793,9.68566827 C103.938981,9.5720625 103.819245,9.51485096 103.630038,9.51485096 C103.440423,9.51485096 103.305976,9.56348077 103.222202,9.66400962 C103.137611,9.76535577 103.064462,9.98929808 103.001938,10.3395144 L102.32112,14.1134327 C102.26963,14.3986731 102.279438,14.6132163 102.351769,14.7546106 C102.423284,14.8976394 102.554462,14.9691538 102.742851,14.9691538 C102.965159,14.9691538 103.129438,14.8943702 103.23487,14.7456202 C103.339894,14.5972788 103.430207,14.3169423 103.504582,13.9037933 L103.67499,12.9528558 L106.572755,12.9528558 C106.452202,13.5879038 106.336553,14.0652115 106.221313,14.3827356 C106.108524,14.7006683 105.867418,15.028 105.504125,15.3594183 C105.139197,15.6941058 104.697442,15.9450192 104.177635,16.1150192 C103.657418,16.2842019 103.036264,16.3700192 102.315399,16.3700192 C101.394293,16.3700192 100.686096,16.2535529 100.190399,16.0185769 C99.6947019,15.7844183 99.3726827,15.4570865 99.225976,15.0345385 C99.0792692,14.6119904 99.0751827,14.0124952 99.2145337,13.2356442 L99.6240048,10.9708846 C99.7474183,10.2953798 99.9292692,9.78333654 100.175688,9.44006731 C100.421288,9.09516346 100.86713,8.78908173 101.512803,8.51773558 C102.158476,8.24884135 102.909582,8.11194231 103.76612,8.11194231 C104.617346,8.11194231 105.31737,8.24843269 105.873548,8.51610096 C106.426865,8.78622115 106.765639,9.12458654 106.892731,9.53528365 C107.017779,9.9439375 107.012058,10.5258606 106.875976,11.2757404" id="Fill-66" fill="#EE3D42" mask="url(#mask-10)"></path>
                <path d="M76.2205625,41.6198822 L73.0645288,41.6198822 L73.196524,40.8981995 C73.2578221,40.5594255 73.2557788,40.3440649 73.1912115,40.2500745 C73.1282788,40.159762 73.0015962,40.1131755 72.814024,40.1131755 C72.6088798,40.1131755 72.442149,40.1748822 72.314649,40.2999303 C72.1879663,40.425387 72.1009231,40.6133678 72.0563798,40.8659159 C71.9979423,41.1924303 72.0110192,41.4388486 72.0984712,41.6027188 C72.1802019,41.7686322 72.464625,41.9668293 72.9505144,42.1960841 C74.3432067,42.8634159 75.1968846,43.4101947 75.5119567,43.8384639 C75.8282548,44.2663245 75.8997692,44.9585841 75.7269087,45.9115649 C75.6010433,46.6054591 75.3999856,47.1154591 75.1229183,47.4436082 C74.8454423,47.7729832 74.3742644,48.0471899 73.7085673,48.2694976 C73.0436875,48.4926226 72.295851,48.6033678 71.4662837,48.6033678 C70.553351,48.6033678 69.7997933,48.4762764 69.2019327,48.2175986 C68.6036635,47.9625986 68.2411875,47.6360841 68.1136875,47.2376466 C67.9857788,46.8420697 67.9870048,46.2785361 68.119,45.5482716 L68.234649,44.910363 L71.390274,44.910363 L71.1757308,46.1028149 C71.1087115,46.4701947 71.1103462,46.7068053 71.1818606,46.812238 C71.2541923,46.9176707 71.403351,46.9687524 71.6342404,46.9687524 C71.8634952,46.9687524 72.0469808,46.9029591 72.1834712,46.769738 C72.3195529,46.6377428 72.4110913,46.4399543 72.4576779,46.1788245 C72.5622933,45.6030313 72.5267404,45.2266611 72.3502019,45.0488966 C72.1675337,44.8731755 71.6898173,44.5805793 70.9174615,44.1702909 C70.1451058,43.7567332 69.6375577,43.4555553 69.3980865,43.2671659 C69.1557548,43.0791851 68.9779904,42.8184639 68.8553942,42.4874543 C68.7348413,42.1544014 68.7213558,41.7302188 68.8149375,41.212863 C68.9502019,40.467887 69.1753702,39.9227428 69.4937115,39.5782476 C69.8120529,39.2345697 70.2734231,38.9636322 70.8786394,38.7699303 C71.4842644,38.5758197 72.189601,38.4785601 72.9983269,38.4785601 C73.8781587,38.4785601 74.612101,38.5839928 75.1944327,38.7956755 C75.7771731,39.0077668 76.1404663,39.2742091 76.2843125,39.5974543 C76.4273413,39.9174303 76.428976,40.4650264 76.2912596,41.2365649 L76.2205625,41.6198822 Z" id="Fill-67" fill="#EE3D42" mask="url(#mask-10)"></path>
                <path d="M143.622293,42.8945144 L140.228832,42.8945144 L140.532053,41.2112692 C140.621139,40.7225192 140.637486,40.4156202 140.588038,40.2950673 C140.535731,40.1749231 140.383712,40.1132163 140.132798,40.1132163 C139.848375,40.1132163 139.65549,40.189226 139.550466,40.335524 C139.447894,40.4846827 139.352269,40.805476 139.263183,41.2987212 L138.445875,45.8253798 C138.360058,46.2998269 138.34126,46.6079519 138.391524,46.753024 C138.442197,46.8968702 138.600755,46.9687933 138.86924,46.9687933 C139.126692,46.9687933 139.307317,46.8960529 139.41275,46.7505721 C139.519,46.6055 139.621163,46.2618221 139.718832,45.7211731 L139.941548,44.4849952 L143.333784,44.4849952 L143.265947,44.8658606 C143.083688,45.8760529 142.858519,46.5932404 142.59126,47.0153798 C142.323183,47.4379279 141.833207,47.8085769 141.122558,48.1265096 C140.409457,48.444851 139.573351,48.6034087 138.614649,48.6034087 C137.61876,48.6034087 136.82025,48.4693702 136.223615,48.2017019 C135.624529,47.9332163 135.261644,47.5625673 135.137822,47.0889375 C135.014817,46.6140817 135.038111,45.8997548 135.208928,44.9496346 L135.722606,42.1082644 C135.849288,41.4094663 135.975971,40.8851635 136.103471,40.5333125 C136.23138,40.1847308 136.485154,39.846774 136.865202,39.5231202 C137.244024,39.198649 137.734409,38.9432404 138.335947,38.7585288 C138.936668,38.5709567 139.606861,38.4781923 140.345707,38.4781923 C141.349361,38.4781923 142.150731,38.6216298 142.750226,38.9072788 C143.349313,39.1937452 143.714649,39.5509087 143.841332,39.9791779 C143.96924,40.4074471 143.952486,41.071101 143.789024,41.9750433 L143.622293,42.8945144 Z" id="Fill-68" fill="#EE3D42" mask="url(#mask-10)"></path>
                <path d="M132.517983,40.4318029 L130.549498,46.1901442 C130.234425,47.1071635 129.99945,47.7311779 129.839257,48.0634135 C129.681517,48.3948317 129.465748,48.6694471 129.194401,48.886851 C128.925916,49.1026202 128.576925,49.2603606 128.147022,49.3641587 C127.71957,49.4646875 127.053873,49.5157692 126.152791,49.5157692 L124.182262,49.5157692 L124.411108,48.2428125 C124.917839,48.2428125 125.245579,48.2227885 125.398416,48.1851923 C125.550435,48.1475962 125.639522,48.0617788 125.660772,47.9322356 C125.67344,47.8672596 125.655459,47.588149 125.60969,47.0957212 L125.022046,40.4318029 L127.978656,40.4318029 L128.080411,45.8276683 L129.567911,40.4318029 L132.517983,40.4318029 Z" id="Fill-69" fill="#EE3D42" mask="url(#mask-10)"></path>
                <path d="M123.949615,39.3700793 L123.721995,40.623012 L124.607957,40.623012 L124.382788,41.8743101 L123.49601,41.8743101 L122.725288,46.1496466 C122.630481,46.6747668 122.612091,46.9685889 122.674615,47.0274351 C122.735913,47.0887332 123.033822,47.1181563 123.564663,47.1181563 L123.334591,48.3915216 L122.020361,48.3915216 C121.279063,48.3915216 120.753942,48.3694543 120.445817,48.3224591 C120.13851,48.2758726 119.876971,48.1696226 119.66488,48.0045264 C119.454014,47.838613 119.337139,47.6485889 119.316707,47.433637 C119.296274,47.2182764 119.357981,46.7152236 119.500601,45.9232524 L120.231274,41.8743101 L119.51899,41.8743101 L119.744567,40.623012 L120.45726,40.623012 L120.684063,39.3700793 L123.949615,39.3700793 Z" id="Fill-70" fill="#EE3D42" mask="url(#mask-10)"></path>
            </g>
        </g>
    </g>
</svg>