<?xml version="1.0" encoding="UTF-8"?> <!-- Generator: Adobe Illustrator 22.1.0, SVG Export Plug-In . SVG Version: 6.00 Build 0) --> <svg xmlns="http://www.w3.org/2000/svg" xmlns:xlink="http://www.w3.org/1999/xlink" id="Layer_1" x="0px" y="0px" viewBox="0 0 148 47" style="enable-background:new 0 0 148 47;" xml:space="preserve"> <style type="text/css"> .st0{fill:#002DD2;} </style> <g> <path class="st0" d="M97.2,14.4h6.8v2.2c1.3-1,4.3-2.8,7.3-2.8c7,0,7.5,3.8,7.5,8.9v14h-6.8V23.3c0-3.1-0.7-3.6-3-3.6 c-2,0-3.9,0.7-5,1.2v15.8h-6.8V14.4z"></path> <path class="st0" d="M133.9,31.3c-0.7,0.1-1.4,0.1-1.9,0.1c-1.8,0-2.4-0.1-2.4-1.8V19.4h4.1v-5h-4.1V9.8h-6.8v4.6h-3.3l0.6,5h2.7 v10.3c0,7.6,5,7.4,9.3,7.4c0.8,0,1.6-0.1,2.5-0.2L133.9,31.3z"></path> <path class="st0" d="M85.3,13.8c-2.1,0-4.8,0.3-7.1,1.3l-0.7,5.4l0.1,0.1c2.2-1,4.6-1.6,6.8-1.6c2.8,0,3.9,1,3.9,3.1v1.4h-3.9 c-4.4,0-9.6,1.1-9.6,6.8c0,4.5,2.8,6.7,7.7,6.7c2.5,0,4.8-1.3,6.4-2.5c0,0.2,0,2.2,0,2.2l6,0v-5.9v-3.3v-6.7 C95,15.8,92.2,13.8,85.3,13.8z M88.3,31c-1.5,0.4-3,0.8-4.3,0.8c-1.2,0-2.5-0.6-2.5-1.9c0-1.6,1.5-2.3,3.5-2.3l3.3-0.1V31z"></path> <polygon class="st0" points="43,36.7 33.3,7.8 26.9,7.8 28.5,12.9 31.9,23.8 27.2,23.8 29.5,17 22.7,17 20.4,23.8 11.6,23.8 13.5,30 18.3,30 16,36.7 22.9,36.7 25.2,30 33.8,30 35.8,36.7 "></polygon> <path class="st0" d="M43.9,7.8h6.8v28.9h-6.8V7.8z"></path> <path class="st0" d="M51.9,14.4h7l4,12.1l1.1,4.5l1.3-4.5l4.4-12.1h6.9l-8.7,22.3H60L51.9,14.4z"></path> </g> </svg> 