<?xml version="1.0" encoding="utf-8"?>
<!-- Generator: Adobe Illustrator 24.1.0, SVG Export Plug-In . SVG Version: 6.00 Build 0)  -->
<svg version="1.1" xmlns="http://www.w3.org/2000/svg" xmlns:xlink="http://www.w3.org/1999/xlink" x="0px" y="0px"
	 viewBox="0 0 197.53 243.12" style="enable-background:new 0 0 197.53 243.12;" xml:space="preserve">
<style type="text/css">
	.st0{fill:#F5333F;}
</style>
<g id="Layer_1">
	<g>
		<path class="st0" d="M117.77,15.51H81.96C36.95,51.25,10.15,107.6,10.15,164.35v31.78h18.34v-31.78
			c0-36.26,12.21-72.01,33.19-101.1v132.88l18.34,18.34V41.76c3.42-3.39,6.98-6.63,10.68-9.7v193.09l9.17,9.17l9.17-9.17V32.06
			c3.7,3.07,7.26,6.31,10.68,9.7v172.71l18.34-18.34V63.25c20.98,29.09,33.19,64.84,33.19,101.1v31.78h18.34v-31.78
			C189.59,107.6,162.79,51.25,117.77,15.51z"/>
	</g>
</g>
<g id="Layer_2">
</g>
</svg>
