<svg data-name="Ebene 1" xmlns="http://www.w3.org/2000/svg" xmlns:xlink="http://www.w3.org/1999/xlink" viewBox="0 0 173.57 35.66"><defs><linearGradient id="a" x1="-6.06" y1="35.31" x2="32.36" y2="14.79" gradientUnits="userSpaceOnUse"><stop offset="0" stop-color="#3ed8fa"/><stop offset="1" stop-color="#6dedc9"/></linearGradient><linearGradient id="b" x1="16.8" y1="23.56" x2="36.58" y2="12.99" xlink:href="#a"/></defs><path d="M65.25 23.57h3l-4.39-11.38A1.92 1.92 0 0061.41 11a1.89 1.89 0 00-1.17 1.17l-4.43 11.4h3s3.08-8.73 3.2-9.11zm14.74-5v-7.65h-2.8v7.3c0 2-1 2.89-2.39 2.89s-2.38-.92-2.38-2.89v-7.3h-2.8v7.66A5.19 5.19 0 0080 19a3.53 3.53 0 000-.46zm8.45-5.09H92v-2.56H82v2.57h3.57v10.08h2.8zm14.45 3.76a3.57 3.57 0 11-7.12.53 4.68 4.68 0 010-.53 3.57 3.57 0 117.12-.53 4.68 4.68 0 010 .53zm2.8 0a6.36 6.36 0 10-6.36 6.36 6.36 6.36 0 006.36-6.36zm5.4-3.76h6.36v-2.56h-7.22a2 2 0 00-1.94 2v10.65h2.8v-4.93H117v-2.49h-5.86zm10.72 10.08h6.92v-2.7h-6.06v-9.94h-2.8v10.62a2 2 0 001.94 2zm9.26 0h2.8V10.92h-2.8zM149 18.1a14.42 14.42 0 000-1.47h-6.12v2.21h3.36a3.46 3.46 0 01-3.31 2.28 3.59 3.59 0 01-3.6-3.58 2.81 2.81 0 010-.29 3.59 3.59 0 013.3-3.86h.29a3.52 3.52 0 012.44.95l2-1.87a6.26 6.26 0 00-4.47-1.79 6.37 6.37 0 00-6.4 6.32v.25a6.37 6.37 0 006.16 6.58h.25c3.88 0 5.66-2.47 6-5.73zm9.61 5.47h2.8V10.92h-2.8v4.85h-4.67v-4.85h-2.8v12.65h2.8v-5.09h4.67zm15-10.08v-2.57h-10v2.57h3.58v10.08H170V13.49z" fill="#333"/><path d="M7 35.61a6.8 6.8 0 005.8-3.38l.1-.19.19-.37 5.67-10.62H7a7.09 7.09 0 00-6.92 7.26A7.07 7.07 0 007 35.61z" fill="url(#a)"/><path d="M20.13.54a5.07 5.07 0 00-6.79 2.3 5.77 5.77 0 000 5.36L26 32.29a5.17 5.17 0 004.56 2.82h8.87l-17-32.27a5 5 0 00-2.3-2.3z" fill="url(#b)"/></svg>