<?xml version="1.0" encoding="utf-8"?>
<!-- Generator: Adobe Illustrator 18.1.1, SVG Export Plug-In . SVG Version: 6.00 Build 0)  -->
<svg version="1.1" id="レイヤー_1" xmlns="http://www.w3.org/2000/svg" xmlns:xlink="http://www.w3.org/1999/xlink" x="0px"
	 y="0px" viewBox="0 0 171.8 20" enable-background="new 0 0 171.8 20" xml:space="preserve">
<g>
	<path fill="#E60028" d="M15.3,13.8c-1.2,1.6-3.1,2.7-5.3,2.7c-3.6,0-6.5-2.9-6.5-6.5S6.4,3.5,10,3.5c2.2,0,4.1,1.1,5.3,2.7h4
		C17.7,2.5,14.2,0,10,0C4.5,0,0,4.5,0,10s4.5,10,10,10c4.2,0,7.7-2.5,9.2-6.2H15.3z"/>
	<path fill="#FDFDFD" d="M144.9,0c-5.5,0-10,4.5-10,10s4.5,10,10,10c5.5,0,10-4.5,10-10S150.4,0,144.9,0z M144.9,16.5
		c-3.6,0-6.5-2.9-6.5-6.5s2.9-6.5,6.5-6.5c3.6,0,6.5,2.9,6.5,6.5S148.5,16.5,144.9,16.5z"/>
	<polygon fill="#FDFDFD" points="98.3,0.4 92.5,15.4 86.7,0.4 82.9,0.4 90.9,19.6 94.1,19.6 102.1,0.4 	"/>
	<polygon fill="#FDFDFD" points="71,0.4 59.4,0.4 59.4,3.8 63.3,3.8 63.3,19.6 66.9,19.6 66.9,3.8 71,3.8 	"/>
	<polygon fill="#FDFDFD" points="132.8,0.4 121.3,0.4 121.3,3.8 125.1,3.8 125.1,19.6 128.8,19.6 128.8,3.8 132.8,3.8 	"/>
	<path fill="#E60028" d="M50.7,12.4c2.6-0.7,4.5-3.1,4.5-5.9c0-3.4-2.8-6.2-6.2-6.2h-6.2v19.2h3.7v-7.7l4.8,7.7h4.2L50.7,12.4z
		 M46.5,3.8H49v0c1.5,0,2.7,1.2,2.7,2.7c0,1.5-1.2,2.7-2.7,2.7h-2.5V3.8z"/>
	<path fill="#FDFDFD" d="M167,12.4c2.6-0.7,4.5-3.1,4.5-5.9c0-3.4-2.8-6.2-6.2-6.2h-6.2v19.2h3.7v-7.7l4.8,7.7h4.2L167,12.4z
		 M162.8,3.8h2.5v0c1.5,0,2.7,1.2,2.7,2.7c0,1.5-1.2,2.7-2.7,2.7h-2.5V3.8z"/>
	<g>
		<rect x="75.8" y="16" fill="#FDFDFD" width="3.7" height="3.7"/>
		<rect x="75.8" y="0.4" fill="#FDFDFD" width="3.7" height="11.9"/>
	</g>
	<path fill="#E60028" d="M31.4,0.4h-3.3l-8,19.2H24l0.1-0.1c0.9-2.2,3-3.7,5.4-3.7h0.7c2.4,0,4.5,1.5,5.4,3.7l0.1,0.1h3.8L31.4,0.4z
		 M30.1,12.5h-0.7c-1,0-2,0.2-2.9,0.5l3.2-8.4L33,13C32.1,12.7,31.1,12.5,30.1,12.5z"/>
	<path fill="#FDFDFD" d="M112.7,0.4h-3.3l-8,19.2h3.8l0.1-0.1c0.9-2.2,3-3.7,5.4-3.7h0.7c2.4,0,4.5,1.5,5.4,3.7l0.1,0.1h3.8
		L112.7,0.4z M111.4,12.5h-0.7c-1,0-2,0.2-2.9,0.5l3.2-8.4l3.2,8.4C113.4,12.7,112.4,12.5,111.4,12.5z"/>
</g>
<g>
</g>
<g>
</g>
<g>
</g>
<g>
</g>
<g>
</g>
<g>
</g>
<g>
</g>
<g>
</g>
<g>
</g>
<g>
</g>
<g>
</g>
<g>
</g>
<g>
</g>
<g>
</g>
<g>
</g>
</svg>
