<svg xmlns="http://www.w3.org/2000/svg" width="26" height="26" viewBox="0 0 26 26">
  <g fill="#C90526" transform="translate(-1)">
    <path d="M14,0 C6.81300813,0 1,5.81300813 1,13 C1,20.1869919 6.81300813,26 14,26 C21.1869919,26 27,20.1869919 27,13 C27,5.81300813 21.1869919,0 14,0 Z M14,23 C8.52631579,23 4,18.4736842 4,13 C4,7.52631579 8.52631579,3 14,3 C19.4736842,3 24,7.52631579 24,13 C24,18.4736842 19.5789474,23 14,23 Z"/>
    <path d="M15.6,9.95354539 L15.6,16.0464546 C15.6,16.9168702 16.2339623,17.2432761 16.8679245,16.8080683 L22.045283,13.7616137 C22.7849057,13.3264059 22.7849057,12.6735941 22.045283,12.2383863 L16.8679245,9.19193174 C16.1283019,8.75672394 15.6,9.08312979 15.6,9.95354539 L15.6,9.95354539 Z"/>
  </g>
</svg>
