<svg width="208" height="48" viewBox="0 0 208 48" xmlns="http://www.w3.org/2000/svg" xmlns:xlink="http://www.w3.org/1999/xlink"><defs><path d="M76.2103929.0009385l2.9072546.5490012c-.2761343 1.1277204-.5506996 2.2257228-.8880227 3.233007h10.8006156v6.4050142h-2.9370645V6.4059525h-8.8410037l-.0925677.3050007c.795455 3.172007 1.8968542 6.1281673 3.3967654 8.7527372 1.8042864-1.2497207 3.9145171-2.9577245 5.2308617-4.3607275l2.2639873 1.8910041c-1.7744765 1.6172856-4.1608415 3.3847254-6.0890746 4.6360102 2.2043674 3.172007 5.0190543 5.7340126 8.4754396 7.3200161-.6432674.5192832-1.59091 1.6157215-2.0804208 2.4102873-6.3950188-3.2940072-10.4931024-9.3643026-12.9720351-17.1723197-1.1327781 1.800286-2.4177439 3.3550073-3.8847072 4.7580104v8.9670197l6.9441494-1.8910041c.0313789.7930017.1223777 1.9520043.2745654 2.5620056C70.3676427 27.0239979 69.1438658 27.4807168 68.3484108 28c-.1835666-.7007195-.7640761-1.8910042-1.2535869-2.5307235.6416984-.3065648 1.589341-.9775663 1.589341-2.227287v-6.0390132c-1.4073434.94472-2.9966844 1.800286-4.7099721 2.5010055-.368702-.6100014-1.4073434-1.800286-2.0506108-2.3492872 5.9039391-2.1647228 9.7902152-5.7027305 12.2079591-10.948742h-7.4352292v3.7820083h-2.8146868V3.7829468h11.3199363c.3671331-1.1887206.7044562-2.4400054 1.0088315-3.7820083zM15.4509679 0c-.0313789 2.4712875-.0611889 5.3977298-.4283219 8.4195826h12.3287678v2.9280064H16.185234c2.0788518 6.344014 5.9337491 11.4993074 11.7168794 13.9080306-.7044562.6084372-1.6520988 1.7987219-2.1102307 2.6542879-5.7219415-2.6542879-9.4246511-7.5968629-11.8094471-14.061313-1.5611 5.5197301-4.8652977 10.7970238-11.8094471 14.061313C1.7132877 27.1466238.795455 26.1409036 0 25.5293382c7.2814726-3.172007 10.249916-8.6635832 11.4736929-14.1817492H.6118885V8.4195826h11.3811252c.367133-3.0500067.3373231-5.9780131.367133-8.4195826zm25.6067472 1.1288153v8.0504536h-6.1800733c-.1521877 1.1605666-.3059443 2.2882871-.4581319 3.3565715h7.0665271s-.0298099.7335657-.0298099 1.0980024c-.3671331 8.632301-.7044562 11.804308-1.5611 12.8100281-.5506996.7022836-1.1327781.9462842-1.987853 1.0370023-.7342662.0922823-2.0506108.0922823-3.3653865.0312821-.0611889-.7335657-.3373231-1.7095678-.7044562-2.3492872 1.113637.104378 2.1353547.1182951 2.7260733.1201507l.2408012.0002855c.4597008.0328462.7342662-.059436 1.0104004-.3644367.5208897-.6397194.8864538-3.2627251 1.193967-10.0947401h-7.4666081c.398512-2.1037226.8566439-5.429012 1.1029682-7.9910176h5.9651279V3.4452563h-7.0367172v-2.316441h9.484271zm17.9586123 24.0043348v2.1350047h-17.805954v-2.1350047h17.805954zM105.244657.3670957V23.670711h4.620542V.3968137h2.905686V23.670711H121v2.8044421H94.108287V23.670711h8.229115V.3670957h2.907255zm-69.3567717 15.035751v1.8315681h2.0788518v1.830004h-2.0788518v2.286723l2.2326084-.2737186.0298099 1.858158c-2.4161749.3957188-4.8637287.7632837-6.8829606 1.0682844l-.2761343-2.0130044c.8268339-.0907182 1.8058554-.2127185 2.8460658-.3644367v-2.5620057H31.664286v-1.830004h2.1729885v-1.8315681h2.0506108zm21.3853445.6412834v7.8674532H43.6579273v-7.8674532h13.6153025zm-2.4773638 4.6375743h-3.3041976v1.6157215h3.3041976v-1.6157215zm-5.506996-.0015641h-3.2430088v1.6157215H49.28887v-1.6157215zm0-3.0218528h-3.2430088v1.5562855H49.28887v-1.5562855zm5.506996 0h-3.3041976v1.5562855h3.3041976v-1.5562855zm63.176541-10.9177727l2.599742 1.2512848c-1.437154 3.6287259-3.426576 7.8392993-5.078674 10.7047415l-2.354986-1.2200027c1.622288-2.774724 3.70114-7.2277338 4.833918-10.7360236zm-20.6818294-.0893104c1.5297212 3.4754435 3.3653864 8.0504536 4.1608414 10.7954596l-2.8460657 1.0370023c-.7028872-2.8060062-2.4161749-7.5030165-3.916086-11.0113063zM58.8029509 12.900277v1.9520043H42.2819627V12.900277h16.5209882zm-1.8654753-8.601019v7.4717344H43.9968193V4.2992582h12.9406563zm-7.6799845 4.424856h-2.8758758v1.4655673h2.8758758V8.7241141zm5.1712419 0h-2.9668746v1.4655673h2.9668746V8.7241141zm-5.1712419-2.8670064h-2.8758758V7.291393h2.8758758V5.8571077zm5.1712419-.001564h-2.9668746v1.4342851h2.9668746V5.8555436zm4.1294625-4.6970104V3.204384H42.2819627V1.1585333h16.2762328z" id="a"/></defs><g fill="#141414" fill-rule="evenodd"><use xlink:href="#a" transform="translate(87 10)"/><path d="M60.0023033 11.9986729c-1.2967435 4.8184834-2.5876596 9.6383379-3.8521816 14.4653909-.6324324 2.4131837-1.2532102 4.8280813-1.9812786 7.2158991-.7071588 2.319947-1.5757679 4.7962026-2.841661 6.9032822-1.3203954 2.198945-3.0301908 3.9159389-5.3964134 5.0152401-.9460777.4391035-1.9154646.7404086-2.9324981.9560184-1.4431113.3057613-2.8927354.4315622-4.3591558.5145154-3.2423484.1827149-9.7310675.1779711-13.6683347.1748571l-1.2971748-.0007239 2.225682-8.2487007c1.6847724 0 3.3692021.0058273 5.0536317-.040791 1.6254712-.0452472 3.4141065-.1323138 5.0148974-.5107448 1.752986-.414766 3.0757808-1.126381 4.2343832-2.5526959 1.0554251-1.2991429 1.7649834-2.920158 2.3463413-4.4489647 1.0619379-2.7919575 2.1492417-6.7894786 2.9157018-9.6643893.8668951-3.2543702 1.7001976-6.5169671 2.5400129-9.7781929zM75 11.9986043l-6.4744622 23.9964381H56.5278329l6.4741194-23.9964381H75zM47.4318786 3c-1.2569808 4.684113-2.5122476 9.3685687-3.7836252 14.048911-.8860909 3.2605403-1.7660117 6.5224516-2.7278574 9.7620822-.4195649 1.4122609-.8384442 2.8204084-1.3882662 4.1915355-.4418457 1.1013579-.9357942 2.081371-1.8489649 2.90439-.6821357.6146077-1.4259721.9968094-2.2921817 1.2693209-1.1143835.3506658-2.2407644.4792089-3.3921684.5734739-1.6559788.1357416-3.3123003.1703626-4.9710213.1970995-3.8148184.061358-10.7424381.0527884-14.5572564.0363349-1.3707843-.0061701-2.7415687-.0143968-4.112353-.0394199-.9937243-.0178246-1.9864204-.0425049-2.9787736-.1045484-.6625972-.0418194-1.3200526-.0973501-1.9747658-.2180092-.4442452-.0815821-.8720368-.1912723-1.2888595-.3732894-1.372841-.5998681-2.0724586-1.7989187-2.1132496-3.2591691-.023652-.835702.1216875-1.6316412.288965-2.4399207.2375478-1.1448911.5333685-2.2740143.8264469-3.4045086.5594198-2.1598679 1.583309-6.1450488 2.381305-8.2428733.625234-1.6439814 1.4509952-3.2800788 3.0199074-4.3207643.8771786-.5817006 1.7989188-.8908898 2.8152667-1.0955305.7534344-.1515096 1.5106393-.2317205 2.2746999-.2886223 1.2796043-.0949505 2.560237-.1247725 3.8422409-.1473961 1.8218851-.0318787 3.6437702-.0387344 5.4656554-.0442189 3.0298481-.0082267 6.0596962-.0061701 9.0892015-.0061701-.5395385 1.9994461-1.079077 3.999235-1.6186155 5.9990239-2.7011204 0-5.4015552-.0075412-8.1026756.0082267-.7883981.004799-1.5757678-.0010283-2.3634803.050389-.27971.0181674-.5529071.0363348-.8233619.1309426-.3558075.1234014-.5316545.3468952-.687963.6677389-.2286354.469611-.3606064.9649307-.5062887 1.4605931-.2224653.7568622-.4284772 1.5181805-.6348318 2.2798416-.3177587 1.173342-.6355174 2.3466841-.9371654 3.5244822-.1114041.4360185-.2207515.8720369-.3146737 1.3121687-.0661568.3085036-.1258009.6159788-.1552801.9306525-.0322215.3441529-.0421622.7575477.1662492 1.0770203.2118391.3242716.570046.3996836.9042583.4480158.3777455.0551879.7561766.0671852 1.1359788.078497.6218061.018853 1.2436123.0215953 1.8654184.0246803 1.7012259.0082268 3.4024519.0085696 5.1036778-.0020567.783942-.0047989 1.5671983-.0102834 2.3504547-.0418194.5395385-.0215952 1.0722214-.0401054 1.6035331-.1686486.4037969-.0976928.719499-.251259.992696-.5813579.1847594-.2234937.3054186-.4713249.4157943-.7345813.2742254-.6526565.4658405-1.3282794.6656822-2.0035595.7668029-2.5904019 1.4575081-5.2006851 2.1632958-7.8078833C32.6405023 13.4366767 34.0366524 8.2185097 35.4338309 3z"/></g></svg>