<svg xmlns="http://www.w3.org/2000/svg" width="315.043" height="59.343" viewBox="0 0 315.043 59.343">
  <g id="Haltech_logo_YELLOW_-_for_black_bg" data-name="Haltech logo YELLOW - for black bg" transform="translate(0 0)">
    <g id="Group_355" data-name="Group 355" transform="translate(0 0)">
      <path id="Path_278" data-name="Path 278" d="M459.088,484.841h0a10.158,10.158,0,0,1-9.042-5.107,10.772,10.772,0,0,1,.339-10.729l14.332-27.419a12.856,12.856,0,0,1-1.253-1.737c-.028-.047-.057-.1-.084-.158a9.77,9.77,0,0,1,.442-9.5,10.263,10.263,0,0,1,8.938-4.686h48.393a10.448,10.448,0,0,1,9.428,5.14,10.323,10.323,0,0,1,.9,7.976l30.272,0a9.684,9.684,0,0,1,.844-8.4,10.288,10.288,0,0,1,9-4.714l39.461.166c6.412,0,8.991,4.072,9.8,5.823a9.894,9.894,0,0,1,.4,7.283l82.984-.145a9.7,9.7,0,0,1,.868-8.476,10.282,10.282,0,0,1,8.952-4.66h19.076a10.444,10.444,0,0,1,9.432,5.148,10.322,10.322,0,0,1,.9,7.959h6.511a14.609,14.609,0,0,1,11.577,6.508c3.793,5.584,1.812,12.224,1.117,13.568l-10.006,18.9c-3.513,6.73-9.263,7.254-10.941,7.254Zm13.671-56.855a7.834,7.834,0,0,0-6.839,3.527,7.3,7.3,0,0,0-.312,7.092,11.181,11.181,0,0,0,1.5,1.934,1.239,1.239,0,0,1,.2,1.432L452.557,470.2a8.352,8.352,0,0,0-.348,8.322,7.709,7.709,0,0,0,6.879,3.84l282.643-.007c1.327,0,5.876-.427,8.747-5.928l10-18.9c.431-.838,2.115-6.482-.974-11.03a12.062,12.062,0,0,0-9.531-5.419h-8.292a1.24,1.24,0,0,1-1.119-1.774,8.15,8.15,0,0,0-.144-7.43,8.014,8.014,0,0,0-7.282-3.9H714.065a7.852,7.852,0,0,0-6.855,3.5,7.307,7.307,0,0,0-.316,7.083s.136.245.381.6a1.239,1.239,0,0,1-1.015,1.948l-86.884.153h0a1.24,1.24,0,0,1-1.087-1.836,7.587,7.587,0,0,0,.326-6.888c-.611-1.318-2.569-4.385-7.556-4.385l-39.462-.166a7.856,7.856,0,0,0-6.889,3.547,7.307,7.307,0,0,0-.247,7.13c.051.1.15.294.3.541a1.24,1.24,0,0,1-1.049,1.9h0l-34.018,0a1.241,1.241,0,0,1-1.119-1.775,8.144,8.144,0,0,0-.146-7.444,8.015,8.015,0,0,0-7.278-3.9Z" transform="translate(-448.775 -425.498)" fill="#ffbe1a"/>
    </g>
    <g id="Group_356" data-name="Group 356" transform="translate(9.097 9)">
      <path id="Path_279" data-name="Path 279" d="M579.352,475.5c-.369.694-.757,2.047,1.2,2.047h11.584s1.571,0,2.974-2.43l19.566-36.748s1.15-1.972-1.411-1.972H594.228s-1.813-.038-1.277,1.052a3.42,3.42,0,0,0,.894.736l4.119,2.278Z" transform="translate(-480.472 -436.389)" fill="#ffbe1a"/>
      <path id="Path_280" data-name="Path 280" d="M523.067,436.4h-10.7a3.135,3.135,0,0,0-2.761,1.323l-6.3,11.792H489.19l5.8-10.9s1.281-2.218-1.278-2.218H474.682s-1.759-.021-1.227,1.089a2.729,2.729,0,0,0,.843.7c.518.3,4.17,2.182,4.17,2.182l-18.248,34.9s-1.391,2.276.782,2.276h11.583s1.619.167,2.975-2.43l9.651-18.112H499.3l-9.987,18.7s-1.136,1.842,1.035,1.842h11.584s1.62.167,2.973-2.43l19.569-36.748s1.148-1.972-1.41-1.972Z" transform="translate(-459.781 -436.388)" fill="#ffbe1a"/>
      <path id="Path_281" data-name="Path 281" d="M806.608,452a5.31,5.31,0,0,0-4.041-2.5H781.2l5.925-11.133s1.154-1.972-1.405-1.972H766.689s-1.812-.056-1.283,1.055a2.136,2.136,0,0,0,.9.732c.559.217,4.438,2.2,4.438,2.2l-18.517,34.89s-1.248,2.283.782,2.275H764.59s1.618.168,2.974-2.428L777.208,457h14.355l-9.674,18.264s-1.39,2.275.784,2.275h11.581s1.619.168,2.974-2.428l9.651-18.1s1.084-3.015-.27-5.008Z" transform="translate(-510.449 -436.387)" fill="#ffbe1a"/>
      <path id="Path_282" data-name="Path 282" d="M675.244,460.911h-19l1.954-3.675h19Zm7.928-11.2h-50l5.491-10.243.972-1s1.591-1.875-1.165-1.875l-10.966,0a3.146,3.146,0,0,0-2.761,1.325l-16.815,31.479c-3.981,8.059,3.9,8.359,3.9,8.359h15.18a2.775,2.775,0,0,0,2.173-1.393L631.6,471.8c.646-1.215-.357-1.479-.918-1.474-.645,0-8.452-.021-8.452-.021l5.517-10.284a.831.831,0,0,0-.085-.963l-2.313-1.861,18.7.01-6.6,12.2c-3.979,8.059,3.9,8.359,3.9,8.359H676a2.779,2.779,0,0,0,2.175-1.393s2.163-4.124,2.375-4.612c.5-1.154-.845-1.434-.845-1.434l-28.461-.031,1.457-2.739,24.52-.074c5.668,0,7.378-3.767,7.378-3.767l4.137-7.653C690.365,452.823,688.41,449.714,683.172,449.714Z" transform="translate(-485.287 -436.424)" fill="#ffbe1a"/>
      <path id="Path_283" data-name="Path 283" d="M739.377,452.3l-18.874-.031s-6.163-.336-8.732,4.223l-8.2,15.46c-3.978,8.055,3.9,8.358,3.9,8.358h28.686a2.784,2.784,0,0,0,2.177-1.394s2.224-4.091,2.448-4.578c.283-.617-.039-1.457-1.14-1.457H717.733l6.939-13.114h22.38a2.886,2.886,0,0,0,2.214-1.382l2.585-4.863c.29-.545-.2-1.252-1.032-1.252S739.377,452.3,739.377,452.3Z" transform="translate(-501.88 -439.141)" fill="#ffbe1a"/>
      <path id="Path_284" data-name="Path 284" d="M553.711,472.85H535.569l1.9-3.69h18.207Zm-17.791-20.583a2.825,2.825,0,0,0-2.746,1.38l-2.289,4.33s-1.072,1.783.788,1.783H560.69l-1.988,3.7H533.747s-5.281-.15-7.781,3.986l-2.943,5.428c-3.5,7.247,3.445,7.424,3.445,7.424h35.207a3.137,3.137,0,0,0,2.814-1.344l9.749-18.484c3.485-6.691-1.879-8.206-3.9-8.206Z" transform="translate(-470.581 -439.142)" fill="#ffbe1a"/>
    </g>
  </g>
</svg>
