<?xml version="1.0" encoding="utf-8"?>
<!-- Generator: Adobe Illustrator 15.1.0, SVG Export Plug-In . SVG Version: 6.00 Build 0)  -->
<!DOCTYPE svg PUBLIC "-//W3C//DTD SVG 1.1//EN" "http://www.w3.org/Graphics/SVG/1.1/DTD/svg11.dtd">
<svg version="1.1" id="Layer_1" xmlns="http://www.w3.org/2000/svg" xmlns:xlink="http://www.w3.org/1999/xlink" x="0px" y="0px"
	 width="422px" height="130px" viewBox="0 0 422 130" enable-background="new 0 0 422 130" xml:space="preserve">
<g>
	<g>
		<g>
			<path fill="#FFFFFF" d="M110.02,60.808c18.127,0,27.828,13.535,27.828,30.258c0,1.657-0.383,5.106-0.383,5.106H90.36
				c0.767,13.787,10.729,21.573,22.215,21.573c11.107,0,18.89-7.53,18.89-7.53l5.364,8.805c0,0-9.573,9.449-24.895,9.449
				c-20.425,0-34.338-14.682-34.338-33.83C77.596,74.087,91.635,60.808,110.02,60.808z M125.084,87.106
				c-0.385-10.724-7.146-16.466-15.186-16.466c-9.451,0-17.115,5.742-19.027,16.466H125.084z"/>
			<path fill="#FFFFFF" d="M180.745,86.724h2.807v-0.638c0-11.362-4.209-15.445-14.297-15.445c-3.065,0-10.598,0.763-10.598,4.977
				v3.702h-11.615v-6.383c0-10.597,16.082-12.129,22.338-12.129c20.937,0,26.553,10.98,26.553,25.278v27.448
				c0,1.912,1.02,2.808,2.813,2.808h5.229v10.596h-11.615c-5.747,0-8.041-2.811-8.041-7.404c0-2.171,0.252-3.833,0.252-3.833h-0.252
				c0,0-5.105,12.769-20.551,12.769c-11.109,0-21.959-6.765-21.959-19.659C141.807,87.999,169.893,86.724,180.745,86.724z
				 M166.446,118.511c10.467,0,17.23-10.979,17.23-20.552v-2.17h-3.186c-9.322,0-26.174,0.509-26.174,12.384
				C154.317,113.405,158.276,118.511,166.446,118.511z"/>
			<path fill="#FFFFFF" d="M213.93,50.211c0-1.914-1.02-2.804-2.808-2.804h-5.23v-10.6h12.251c5.746,0,8.178,2.428,8.178,8.17
				v68.557c0,1.912,1.014,2.808,2.797,2.808h5.238v10.596h-12.25c-5.752,0-8.176-2.428-8.176-8.17V50.211z"/>
			<path fill="#FFFFFF" d="M245.846,75.743c0-1.914-1.02-2.807-2.811-2.807h-5.234V62.34h12.127c5.746,0,8.172,2.428,8.172,8.17
				v43.024c0,1.912,1.018,2.808,2.807,2.808h5.242v10.596h-12.133c-5.748,0-8.17-2.428-8.17-8.17V75.743z M246.096,36.808h11.111
				v12.895h-11.111V36.808z"/>
			<path fill="#FFFFFF" d="M305.588,60.808c19.275,0,34.852,14.172,34.852,33.702c0,19.662-15.576,33.959-34.852,33.959
				c-19.279,0-34.721-14.297-34.721-33.959C270.867,74.979,286.309,60.808,305.588,60.808z M305.588,117.745
				c12.256,0,22.217-9.7,22.217-23.235c0-13.401-9.961-22.978-22.217-22.978c-12.125,0-22.088,9.576-22.088,22.978
				C283.5,108.045,293.463,117.745,305.588,117.745z"/>
		</g>
		<path fill="#FFFFFF" d="M71.969,39.866h-4.598c-5.74,0-8.168,2.426-8.168,8.17v31.539H13.37V48.036c0-5.744-2.428-8.17-8.171-8.17
			H0.603v13.791v36.682V130H13.37V90.423h45.834V130h12.766V83.104V53.657V39.866z"/>
	</g>
	<g>
		<g>
			<path fill-rule="evenodd" clip-rule="evenodd" fill="#FFFFFF" d="M364.941,37.647c-6.02-5.273-9.99-8.958-13.885-12.584
				c-3.828-3.568-7.637-7.07-13.266-11.912c11.422,5.946,18.826,6.386,24.299,4.393c5.092-1.853,8.361-5.772,11.967-9.062
				c-1.234,3.97-2.57,8.227-4.002,12.832C368.508,26.291,366.801,31.723,364.941,37.647L364.941,37.647z"/>
			<path fill-rule="evenodd" clip-rule="evenodd" fill="#FFFFFF" d="M360.607,40.618c-7.572,0.188-13.188,0.084-19.025,0.016
				c-6.082-0.068-12.412-0.144-21.926,0.163c12.754-4.495,15.225-10.723,13.521-17.719c-1.588-6.513-6.848-13.909-11.172-21.047
				c5.977,5.935,12.143,12.035,18.463,18.346C346.98,26.879,353.707,33.641,360.607,40.618L360.607,40.618z"/>
			<path fill-rule="evenodd" clip-rule="evenodd" fill="#FFFFFF" d="M363.338,46.718c-1.102,6.389-2.195,11.063-3.404,15.994
				c-1.293,5.244-2.705,10.878-4.352,19.849c-2.959-15.156-10.703-22.644-21.266-27.333c-10.75-4.768-25.436-7.057-41.098-10.334
				c13.961,0.232,26.92,0.493,38.879,0.82C343.229,46.013,353.645,46.366,363.338,46.718L363.338,46.718z"/>
			<path fill-rule="evenodd" clip-rule="evenodd" fill="#FFFFFF" d="M370.576,49.563c6.471,5.859,10.881,10.166,15.359,14.54
				c4.561,4.46,9.186,9.042,16.195,15.51c-12.846-6.851-20.82-5.606-27.182-0.067c-7.051,6.15-12.66,18.002-20.33,31.211
				c3.59-13.531,6.695-25.424,9.43-35.93C366.479,65.483,368.641,57.117,370.576,49.563L370.576,49.563z"/>
			<path fill-rule="evenodd" clip-rule="evenodd" fill="#FFFFFF" d="M374.613,46.257c6.641-0.276,11.166-0.227,15.51-0.184
				c4.215,0.045,8.305,0.123,13.764-0.088c-6.27,3.901-5.986,10.177-2.27,18.105c3.982,8.507,11.842,18.752,19.779,30.206
				c-8.467-8.773-16.635-17.274-24.529-25.388C389.23,61.052,381.803,53.53,374.613,46.257L374.613,46.257z"/>
			<path fill-rule="evenodd" clip-rule="evenodd" fill="#FFFFFF" d="M371.725,40.423c0.631-5.264,1.297-8.601,1.91-11.771
				c0.588-3.025,1.123-5.922,1.574-10.004c3.133,7.885,9.104,12.948,16.428,16.622c7.238,3.638,15.363,5.711,23.488,8.276
				c-6.311-0.486-12.938-1.006-19.926-1.502C387.811,41.516,380.014,40.98,371.725,40.423L371.725,40.423z"/>
		</g>
	</g>
</g>
</svg>
