<?xml version="1.0" encoding="utf-8"?>
<!-- Generator: Adobe Illustrator 20.0.0, SVG Export Plug-In . SVG Version: 6.00 Build 0)  -->
<svg version="1.1" id="Layer_1" xmlns="http://www.w3.org/2000/svg" xmlns:xlink="http://www.w3.org/1999/xlink" x="0px" y="0px"
	 viewBox="0 0 214 44.9" enable-background="new 0 0 214 44.9" xml:space="preserve">
<g>
	<g>
		<polygon fill="#FFFFFF" points="76,26.2 76,26.2 59.6,26.2 59.6,37.5 56,37.5 56,13.5 59.6,13.5 59.6,23.1 76,23.1 76,13.5 
			79.6,13.5 79.6,37.5 76,37.5 		"/>
		<path fill="#FFFFFF" d="M84.2,13.3L84.2,13.3h3.4V17h-3.4V13.3z M84.2,19.9L84.2,19.9h3.4v17.7h-3.4V19.9z"/>
		<path fill="#FFFFFF" d="M107.6,22.5L107.6,22.5L107.6,22.5c-1.4-2-4.1-3-7-3c-4.7,0-9.7,2.6-9.7,9.1c0,6.5,5,9.1,9.7,9.1
			c2.3,0,5-0.5,6.9-3.3h0.1V37c0,2.9-1.8,5.3-6.6,5.3c-3.2,0-5.3-0.6-5.9-2.9h-3.4c0.7,4.9,5.1,5.5,8.9,5.5c7.3,0,10.3-2.6,10.3-8.9
			V19.9h-3.4V22.5z M107.6,28.6L107.6,28.6c0,3.6-2.4,6.2-6.5,6.2c-4.1,0-6.5-2.6-6.5-6.2c0-3.6,2.4-6.3,6.5-6.3
			C105.1,22.3,107.6,25,107.6,28.6"/>
		<path fill="#FFFFFF" d="M114.9,13.3L114.9,13.3h3.4v9.3h0.1c1.6-2.5,4.4-3.3,6.9-3.3c4.3,0,7.4,1.8,7.4,6.2v12h-3.4V26.2
			c0-2.6-1.6-4.1-5.2-4.1c-3.1,0-5.8,1.8-5.8,5.3v10.2h-3.4V13.3z"/>
		<polygon fill="#FFFFFF" points="153.1,17.6 153.1,17.6 153,17.6 146.4,37.5 142.4,37.5 134.5,13.5 138.4,13.5 144.5,33 144.6,33 
			151.1,13.5 155.3,13.5 161.9,33 162,33 168.1,13.5 171.8,13.5 163.7,37.5 159.8,37.5 		"/>
		<path fill="#FFFFFF" d="M173.7,13.3L173.7,13.3h3.4V17h-3.4V13.3z M173.7,19.9L173.7,19.9h3.4v17.7h-3.4V19.9z"/>
		<path fill="#FFFFFF" d="M181.2,19.9L181.2,19.9h3.4v3.2h0.1c1.6-2.8,3.9-3.8,6.1-3.8c0.8,0,1.3,0,1.9,0.2v3.6
			c-0.8-0.2-1.5-0.3-2.4-0.3c-3.4,0-5.7,2-5.7,5.8v9h-3.4V19.9z"/>
		<path fill="#FFFFFF" d="M214,29.7L214,29.7v-0.4c0-7.3-4.9-10-9.6-10c-6.9,0-10.3,4.3-10.3,9.4s3.4,9.5,10.3,9.5
			c3.5,0,7.4-1.7,9.1-6h-3.6c-1.2,2.5-3.8,3.1-5.7,3.1c-3,0-6.3-2-6.5-5.6H214z M197.8,27.1L197.8,27.1c0.5-3.2,3.3-5,6.4-5
			c3.2,0,5.7,1.8,6.2,5H197.8z"/>
	</g>
	<g>
		<path fill="#FFFFFF" d="M23.9,2.8L23.9,2.8l0-2.8c0.8,0,1.6,0.1,2.4,0.1L26,2.9C25.3,2.8,24.6,2.8,23.9,2.8"/>
		<path fill="#FFFFFF" d="M30.1,3.9L30.1,3.9l0.9-2.7c0.8,0.3,1.5,0.6,2.2,1L32,4.7C31.4,4.4,30.8,4.1,30.1,3.9"/>
		<path fill="#FFFFFF" d="M26.9,3.1L26.9,3.1l0.4-2.8c0.8,0.1,1.6,0.3,2.3,0.5l-0.8,2.7C28.3,3.3,27.6,3.2,26.9,3.1"/>
		<path fill="#FFFFFF" d="M28.3,9.1L28.3,9.1l0.9-2.7c0.6,0.2,1.3,0.5,1.9,0.8l-1.2,2.5C29.3,9.5,28.8,9.3,28.3,9.1"/>
		<path fill="#FFFFFF" d="M23.8,8.5L23.8,8.5V5.7c0.7,0,1.4,0,2.1,0.1l-0.4,2.8C24.9,8.5,24.4,8.5,23.8,8.5"/>
		<path fill="#FFFFFF" d="M26,8.6L26,8.6l0.4-2.8c0.7,0.1,1.4,0.2,2,0.4L27.6,9C27.1,8.8,26.6,8.7,26,8.6"/>
		<path fill="#FFFFFF" d="M23.8,11.8L23.8,11.8V9c0.6,0,1.1,0,1.7,0.1l-0.4,2.8C24.7,11.8,24.2,11.8,23.8,11.8"/>
		<path fill="#FFFFFF" d="M27.1,12.4L27.1,12.4L28,9.7c0.5,0.2,1,0.4,1.5,0.7l-1.2,2.5C27.9,12.7,27.5,12.5,27.1,12.4"/>
		<path fill="#FFFFFF" d="M25.4,11.9L25.4,11.9l0.4-2.8c0.6,0.1,1.1,0.2,1.7,0.4l-0.8,2.7C26.3,12.1,25.9,12,25.4,11.9"/>
		<path fill="#FFFFFF" d="M36.5,7.9L36.5,7.9l1.8-2.1c0.6,0.6,1.2,1.1,1.7,1.7l-2.1,1.8C37.5,8.9,37,8.4,36.5,7.9"/>
		<path fill="#FFFFFF" d="M33.3,5.4L33.3,5.4L34.7,3c0.7,0.4,1.4,0.9,2,1.4l-1.7,2.2C34.5,6.2,33.9,5.8,33.3,5.4"/>
		<path fill="#FFFFFF" d="M33,11.7L33,11.7l1.8-2.1c0.5,0.5,1,1,1.5,1.5l-2.1,1.8C33.8,12.5,33.4,12.1,33,11.7"/>
		<path fill="#FFFFFF" d="M30.7,10.1L30.7,10.1L32,7.7c0.6,0.3,1.2,0.7,1.7,1.2l-1.7,2.2C31.6,10.7,31.1,10.4,30.7,10.1"/>
		<path fill="#FFFFFF" d="M30.5,14.4L30.5,14.4l1.8-2.1c0.4,0.4,0.8,0.8,1.2,1.2l-2.1,1.8C31.1,15,30.8,14.7,30.5,14.4"/>
		<path fill="#FFFFFF" d="M28.9,13.2L28.9,13.2l1.4-2.4c0.5,0.3,1,0.6,1.4,1L30,13.9C29.6,13.6,29.2,13.4,28.9,13.2"/>
		<path fill="#FFFFFF" d="M42.6,25L42.6,25l2.7,0.4c-0.1,0.8-0.3,1.6-0.5,2.4L42.1,27C42.3,26.4,42.5,25.7,42.6,25"/>
		<path fill="#FFFFFF" d="M41.2,15L41.2,15l2.6-1.1c0.3,0.7,0.6,1.5,0.8,2.3L41.8,17C41.7,16.3,41.5,15.7,41.2,15"/>
		<path fill="#FFFFFF" d="M12.4,39.6L12.4,39.6L10.9,42C10.2,41.5,9.6,41,9,40.5l1.8-2.2C11.3,38.8,11.8,39.2,12.4,39.6"/>
		<path fill="#FFFFFF" d="M6.8,7.8L6.8,7.8L4.7,6c0.5-0.6,1-1.2,1.6-1.8l1.9,2C7.7,6.7,7.2,7.2,6.8,7.8"/>
		<path fill="#FFFFFF" d="M26.9,41.9L26.9,41.9l0.5,2.8c-0.8,0.1-1.6,0.2-2.4,0.2l-0.1-2.8C25.5,42.1,26.2,42.1,26.9,41.9"/>
		<path fill="#FFFFFF" d="M36.6,37L36.6,37c0.5-0.4,1-0.9,1.5-1.4l2,1.9c-0.5,0.6-1.1,1.2-1.7,1.7c0,0,0,0,0,0L36.6,37
			C36.6,37,36.6,37,36.6,37"/>
		<path fill="#FFFFFF" d="M3,26L3,26l-2.7,0.6c-0.2-0.8-0.3-1.6-0.3-2.4l2.8-0.2C2.8,24.6,2.9,25.3,3,26"/>
		<path fill="#FFFFFF" d="M39.1,11L39.1,11l2.2-1.6c0.5,0.7,0.9,1.4,1.3,2.1l-2.4,1.3C39.9,12.2,39.5,11.6,39.1,11"/>
		<path fill="#FFFFFF" d="M42.4,19.8L42.4,19.8l2.7-0.3c0.1,0.8,0.1,1.6,0.1,2.4h-2.8C42.6,21.2,42.5,20.5,42.4,19.8"/>
		<path fill="#FFFFFF" d="M41.2,30.4L41.2,30.4l2.5,1.2c-0.3,0.7-0.7,1.4-1.2,2.1l-2.3-1.5C40.6,31.7,40.9,31.1,41.2,30.4"/>
		<path fill="#FFFFFF" d="M33.1,39.7L33.1,39.7l1.3,2.5c-0.7,0.4-1.4,0.7-2.2,1l-1-2.6C31.9,40.3,32.5,40,33.1,39.7"/>
		<path fill="#FFFFFF" d="M19.8,42.1L19.8,42.1l-0.5,2.7c-0.8-0.1-1.6-0.4-2.3-0.6l0.9-2.7C18.4,41.8,19.1,42,19.8,42.1"/>
		<path fill="#FFFFFF" d="M6.3,34L6.3,34l-2.3,1.6c-0.5-0.7-0.9-1.4-1.2-2.1l2.4-1.3C5.6,32.9,5.9,33.5,6.3,34"/>
		<path fill="#FFFFFF" d="M2.9,16.8L2.9,16.8l-2.7-0.6c0.2-0.8,0.4-1.6,0.7-2.3l2.6,1C3.2,15.4,3,16.1,2.9,16.8"/>
		<path fill="#FFFFFF" d="M14.4,36.4L14.4,36.4L13,38.8c-0.6-0.4-1.1-0.8-1.7-1.2l1.8-2.2C13.5,35.8,14,36.1,14.4,36.4"/>
		<path fill="#FFFFFF" d="M6.4,25.3L6.4,25.3l-2.7,0.6c-0.1-0.7-0.2-1.4-0.3-2.1l2.8-0.2C6.2,24.2,6.3,24.8,6.4,25.3"/>
		<path fill="#FFFFFF" d="M9.3,9.8L9.3,9.8L7.1,8.1C7.5,7.5,8,7,8.5,6.5l1.9,2C10,8.9,9.6,9.4,9.3,9.8"/>
		<path fill="#FFFFFF" d="M36.7,16.7L36.7,16.7l2.6-1.1c0.3,0.6,0.5,1.3,0.6,2l-2.7,0.7C37.1,17.8,36.9,17.3,36.7,16.7"/>
		<path fill="#FFFFFF" d="M33.7,33.6L33.7,33.6c0.4-0.4,0.8-0.8,1.2-1.2l2,1.9c-0.4,0.5-0.9,1-1.5,1.4c0,0,0,0,0,0L33.7,33.6
			L33.7,33.6z"/>
		<path fill="#FFFFFF" d="M37.9,24.2L37.9,24.2l2.7,0.4c-0.1,0.7-0.2,1.4-0.4,2l-2.7-0.8C37.7,25.3,37.8,24.7,37.9,24.2"/>
		<path fill="#FFFFFF" d="M26.3,37.9L26.3,37.9l0.5,2.8c-0.7,0.1-1.4,0.2-2,0.2L24.6,38C25.2,38,25.8,37.9,26.3,37.9"/>
		<path fill="#FFFFFF" d="M35.1,14L35.1,14l2.3-1.6c0.4,0.6,0.8,1.2,1.1,1.8l-2.4,1.3C35.7,14.9,35.4,14.4,35.1,14"/>
		<path fill="#FFFFFF" d="M37.7,20.2L37.7,20.2l2.8-0.3c0.1,0.7,0.1,1.4,0.1,2.1h-2.8C37.8,21.4,37.8,20.8,37.7,20.2"/>
		<path fill="#FFFFFF" d="M37.1,28.3L37.1,28.3l2.5,1.2c-0.3,0.6-0.6,1.2-1,1.8l-2.3-1.5C36.6,29.3,36.8,28.8,37.1,28.3"/>
		<path fill="#FFFFFF" d="M31.1,35.8L31.1,35.8l1.3,2.5c-0.6,0.3-1.2,0.6-1.8,0.9l-1-2.6C30.1,36.3,30.6,36.1,31.1,35.8"/>
		<path fill="#FFFFFF" d="M20.6,38.2L20.6,38.2L20,41c-0.7-0.1-1.3-0.3-2-0.5l0.9-2.7C19.5,37.9,20,38.1,20.6,38.2"/>
		<path fill="#FFFFFF" d="M9.3,32L9.3,32L7,33.7c-0.4-0.6-0.7-1.2-1-1.8l2.4-1.3C8.7,31.1,9,31.6,9.3,32"/>
		<path fill="#FFFFFF" d="M6.1,17.6L6.1,17.6L3.4,17c0.1-0.7,0.3-1.3,0.6-2l2.6,1C6.4,16.5,6.3,17,6.1,17.6"/>
		<path fill="#FFFFFF" d="M16,15.6L16,15.6l-2.2-1.7c0.3-0.5,0.7-0.9,1.1-1.3l1.9,2C16.5,14.9,16.2,15.3,16,15.6"/>
		<path fill="#FFFFFF" d="M14,24.1L14,24.1l-2.7,0.6c-0.1-0.5-0.2-1.1-0.2-1.7l2.8-0.2C13.8,23.2,13.9,23.6,14,24.1"/>
		<path fill="#FFFFFF" d="M30.4,29.8L30.4,29.8c0.3-0.3,0.6-0.6,0.9-0.9l2,1.9c-0.4,0.4-0.8,0.8-1.2,1.2c0,0,0,0,0,0L30.4,29.8
			C30.4,29.9,30.4,29.8,30.4,29.8"/>
		<path fill="#FFFFFF" d="M33.1,18.2L33.1,18.2l2.6-1c0.2,0.5,0.4,1.1,0.5,1.6l-2.7,0.7C33.4,19,33.3,18.6,33.1,18.2"/>
		<path fill="#FFFFFF" d="M25.5,32.1L25.5,32.1l0.5,2.8c-0.6,0.1-1.1,0.2-1.7,0.2l-0.1-2.8C24.7,32.3,25.1,32.2,25.5,32.1"/>
		<path fill="#FFFFFF" d="M33.8,23.5L33.8,23.5l2.7,0.4c-0.1,0.6-0.2,1.1-0.3,1.7l-2.7-0.8C33.6,24.4,33.7,24,33.8,23.5"/>
		<path fill="#FFFFFF" d="M18.4,30.7L18.4,30.7L17,33.1c-0.5-0.3-0.9-0.6-1.4-1l1.8-2.2C17.7,30.2,18.1,30.4,18.4,30.7"/>
		<path fill="#FFFFFF" d="M32,16.1L32,16.1l2.3-1.6c0.3,0.5,0.6,1,0.9,1.5l-2.4,1.3C32.5,16.8,32.2,16.4,32,16.1"/>
		<path fill="#FFFFFF" d="M33.8,20.7L33.8,20.7l2.7-0.3c0.1,0.6,0.1,1.1,0.1,1.7h-2.8C33.9,21.6,33.9,21.2,33.8,20.7"/>
		<path fill="#FFFFFF" d="M33,26.3L33,26.3l2.5,1.2c-0.2,0.5-0.5,1-0.8,1.5l-2.3-1.5C32.6,27.1,32.8,26.7,33,26.3"/>
		<path fill="#FFFFFF" d="M28.8,31L28.8,31l1.3,2.5c-0.5,0.3-1,0.5-1.5,0.7l-1-2.6C28,31.4,28.4,31.2,28.8,31"/>
		<path fill="#FFFFFF" d="M21.9,32.1L21.9,32.1l-0.5,2.7c-0.6-0.1-1.1-0.2-1.6-0.4l0.9-2.7C21.1,31.9,21.5,32,21.9,32.1"/>
		<path fill="#FFFFFF" d="M15.6,27.9L15.6,27.9l-2.3,1.6c-0.3-0.5-0.6-1-0.9-1.5l2.4-1.3C15.1,27.2,15.4,27.5,15.6,27.9"/>
		<path fill="#FFFFFF" d="M14,19.7L14,19.7l-2.7-0.6c0.1-0.6,0.3-1.1,0.5-1.6l2.6,1C14.3,18.8,14.1,19.3,14,19.7"/>
	</g>
</g>
</svg>
