<?xml version="1.0" encoding="UTF-8"?>
<svg width="229px" height="27px" viewBox="0 0 229 27" version="1.1" xmlns="http://www.w3.org/2000/svg" xmlns:xlink="http://www.w3.org/1999/xlink">
    <!-- Generator: Sketch 58 (84663) - https://sketch.com -->
    <title>Group 11</title>
    <desc>Created with Sketch.</desc>
    <g id="Page-1" stroke="none" stroke-width="1" fill="none" fill-rule="evenodd">
        <g id="Hamburger---Expanded" transform="translate(-61.000000, -18.000000)" fill="#1B3845" fill-rule="nonzero">
            <g id="Group-15">
                <g id="Group-11" transform="translate(61.000000, 18.000000)">
                    <path d="M65.8949618,26.189879 L60.983284,26.189879 L60.983284,15.6167895 L48.0854429,15.6167895 L48.0854429,26.189879 L43.1362714,26.189879 L43.1362714,0.0373607404 L48.0854429,0.0373607404 L48.0854429,11.0587792 L60.983284,11.0587792 L60.983284,0.0373607404 L65.8949618,0.0373607404 L65.8949618,26.189879 Z M95.6692578,26.1525183 L93.4571281,21.2209006 L79.7344252,21.2209006 L77.4848017,26.1525183 L72.1231992,26.1525183 L83.8962285,-1.66089364e-13 L89.2953248,-1.66089364e-13 L101.068354,26.1525183 L95.6692578,26.1525183 Z M91.4699608,16.6255295 L86.5957766,5.49202884 L81.7215925,16.6255295 L91.4699608,16.6255295 Z M111.90832,14.8322139 L111.90832,21.5571472 L119.482052,21.5571472 C121.506713,21.5571472 124.39373,20.8846539 124.39373,18.418845 C124.39373,16.0651184 121.506713,14.8322139 119.482052,14.8322139 L111.90832,14.8322139 Z M111.90832,4.48328885 L111.90832,10.4983681 L119.482052,10.4983681 C122.594031,10.4983681 123.606361,9.19074215 123.606361,7.69631253 C123.606361,6.50076883 122.631525,4.48328885 119.482052,4.48328885 L111.90832,4.48328885 Z M119.482052,-1.66089364e-13 C124.656186,-1.66089364e-13 128.518039,2.31636591 128.518039,7.58423031 C128.518039,9.60171029 127.543202,11.5444688 125.10611,12.6279303 C128.180596,13.5619488 129.305407,16.8123332 129.305407,18.4562058 C129.305407,24.2844813 124.918642,26.1525183 119.482052,26.1525183 L107.034135,26.1525183 L107.034135,-1.66089364e-13 L119.482052,-1.66089364e-13 Z M142.020059,26.1525183 L137.108381,26.1525183 L137.108381,-1.66089364e-13 L142.020059,-1.66089364e-13 L142.020059,26.1525183 Z M158.934008,26.1525183 L158.934008,4.48328885 L150.610401,4.48328885 L150.610401,-1.66089364e-13 L172.206786,-1.66089364e-13 L172.206786,4.48328885 L163.883179,4.48328885 L163.883179,26.1525183 L158.934008,26.1525183 Z M200.331358,26.1525183 L198.119229,21.2209006 L184.396526,21.2209006 L182.146902,26.1525183 L176.7853,26.1525183 L188.558329,-1.66089364e-13 L193.957425,-1.66089364e-13 L205.730455,26.1525183 L200.331358,26.1525183 Z M196.132061,16.6255295 L191.257877,5.49202884 L186.383693,16.6255295 L196.132061,16.6255295 Z M214.733227,26.1525183 L214.733227,4.48328885 L206.409621,4.48328885 L206.409621,-1.66089364e-13 C213.983353,-1.66089364e-13 220.39478,-1.66089364e-13 228.006006,-1.66089364e-13 L228.006006,4.48328885 L219.682399,4.48328885 L219.682399,26.1525183 L214.733227,26.1525183 Z" id="inhabitat"></path>
                    <polygon id="Path" points="1.54058112 26.189879 -5.65658631e-14 26.189879 -5.65658631e-14 -1.66089364e-13 1.54058112 -1.66089364e-13"></polygon>
                    <polygon id="Path" points="12.324649 -1.66089364e-13 13.1667582 -1.66089364e-13 30.4116909 21.6627714 30.4116909 -1.66089364e-13 32.3522035 -1.66089364e-13 32.3522035 26.189879 31.5833212 26.189879 14.301775 4.56452178 14.301775 26.189879 12.324649 26.189879"></polygon>
                </g>
            </g>
        </g>
    </g>
</svg>