<?xml version="1.0" encoding="utf-8"?>
<!-- Generator: Adobe Illustrator 26.2.1, SVG Export Plug-In . SVG Version: 6.00 Build 0)  -->
<svg version="1.1" id="Layer_1" xmlns="http://www.w3.org/2000/svg" xmlns:xlink="http://www.w3.org/1999/xlink" x="0px" y="0px"
	 viewBox="0 0 260 58.6" style="enable-background:new 0 0 260 58.6;" xml:space="preserve">
<style type="text/css">
	.st0{fill:#0D0E11;}
	.st1{fill-rule:evenodd;clip-rule:evenodd;fill:#FBB040;}
</style>
<path class="st0" d="M220.8,58c0,0,0.1,0.1,0.3,0.1c0.1,0,0.2,0.1,0.4,0.1c0.1,0,0.3,0.1,0.4,0.1c0.1,0,0.3,0,0.4,0
	c0.5,0,1-0.1,1.4-0.2c0.4-0.1,0.8-0.3,1.1-0.6c0.3-0.3,0.6-0.6,0.9-1c0.3-0.4,0.5-0.9,0.8-1.4c0.6-1.5,1.2-3,1.8-4.7
	c0.5-1.7,1-3.4,1.5-5.3h-1.8c-0.3,1.4-0.6,2.7-1,3.9c-0.3,1.3-0.8,2.6-1.2,3.9c-0.3-0.6-0.6-1.3-0.9-2c-0.3-0.7-0.5-1.4-0.8-2
	c-0.2-0.7-0.4-1.3-0.6-2c-0.2-0.6-0.4-1.2-0.5-1.8h-1.9c0.4,1.7,1,3.4,1.7,5.1c0.7,1.7,1.4,3.2,2.2,4.7c-0.3,0.7-0.7,1.2-1,1.5
	c-0.4,0.3-0.9,0.5-1.6,0.5c-0.2,0-0.4,0-0.6-0.1c-0.2-0.1-0.4-0.1-0.5-0.2L220.8,58z M212.3,54.8h1.7v-8.2c0.1,0,0.2,0,0.3-0.1
	c0.1,0,0.3,0,0.5-0.1c0.2,0,0.4,0,0.6,0c0.2,0,0.4,0,0.6,0c0.5,0,0.8,0.1,1.2,0.2c0.3,0.1,0.6,0.3,0.7,0.6c0.2,0.3,0.3,0.6,0.4,1
	c0.1,0.4,0.1,0.9,0.1,1.5v5.1h1.7v-5.4c0-0.7-0.1-1.3-0.2-1.8c-0.1-0.5-0.3-1-0.6-1.4c-0.3-0.4-0.7-0.7-1.2-0.9
	c-0.5-0.2-1.1-0.3-1.9-0.3c-0.9,0-1.6,0.1-2.3,0.2c-0.7,0.1-1.2,0.2-1.6,0.3V54.8z M204.4,45c-0.5,0.1-0.9,0.2-1.1,0.3l0.2,1.4
	c0.2-0.1,0.5-0.2,1-0.3c0.4-0.1,0.9-0.1,1.5-0.1c0.4,0,0.8,0.1,1.1,0.2s0.5,0.3,0.7,0.5c0.2,0.2,0.3,0.5,0.3,0.7
	c0.1,0.3,0.1,0.6,0.1,0.8v0.5c0,0-0.1,0-0.3-0.1c-0.1,0-0.3-0.1-0.4-0.1c-0.2,0-0.3-0.1-0.5-0.1c-0.2,0-0.4,0-0.5,0
	c-0.5,0-1.1,0.1-1.6,0.2c-0.5,0.1-0.9,0.3-1.3,0.5c-0.4,0.2-0.7,0.5-0.9,0.9c-0.2,0.4-0.3,0.8-0.3,1.4c0,0.6,0.1,1,0.3,1.4
	c0.2,0.4,0.4,0.7,0.8,1c0.3,0.2,0.7,0.4,1.2,0.5c0.5,0.1,1,0.2,1.5,0.2c0.4,0,0.8,0,1.2,0c0.4,0,0.8-0.1,1.1-0.1
	c0.3,0,0.6-0.1,0.9-0.1c0.3,0,0.5-0.1,0.6-0.1v-6.1c0-0.5-0.1-1-0.2-1.5c-0.1-0.5-0.3-0.8-0.6-1.2c-0.3-0.3-0.7-0.6-1.2-0.8
	c-0.5-0.2-1.1-0.3-1.8-0.3C205.5,44.8,204.9,44.9,204.4,45 M204.6,53.2c-0.4-0.2-0.6-0.7-0.6-1.3c0-0.3,0.1-0.6,0.2-0.8
	c0.2-0.2,0.4-0.4,0.6-0.5c0.2-0.1,0.5-0.2,0.8-0.2c0.3,0,0.6-0.1,0.8-0.1c0.4,0,0.7,0,1,0.1c0.3,0,0.5,0.1,0.6,0.2v2.9
	c-0.2,0-0.5,0.1-0.8,0.1c-0.3,0-0.7,0-1.1,0C205.5,53.5,205,53.4,204.6,53.2 M200.5,47.8c-0.2-0.6-0.6-1.2-1-1.6
	c-0.4-0.4-0.9-0.8-1.5-1c-0.6-0.2-1.3-0.4-2-0.4c-0.8,0-1.5,0.1-2.1,0.2c-0.6,0.1-1.1,0.2-1.5,0.3v12.8h1.7v-3.9
	c0.2,0.1,0.5,0.3,1,0.4c0.4,0.1,0.9,0.2,1.5,0.2c0.7,0,1.3-0.1,1.9-0.4c0.5-0.2,1-0.6,1.4-1c0.4-0.4,0.7-1,0.8-1.6
	c0.2-0.6,0.3-1.3,0.3-2C200.9,49.2,200.8,48.5,200.5,47.8 M198.9,51.3c-0.1,0.4-0.3,0.8-0.5,1.1c-0.2,0.3-0.5,0.6-0.9,0.7
	c-0.4,0.2-0.8,0.3-1.3,0.3c-0.5,0-0.9-0.1-1.3-0.2c-0.4-0.2-0.7-0.3-0.9-0.5v-6.1c0.2,0,0.4-0.1,0.7-0.1c0.3,0,0.7-0.1,1.2-0.1
	c0.9,0,1.7,0.3,2.2,0.9c0.6,0.6,0.8,1.5,0.8,2.6C199.1,50.4,199,50.9,198.9,51.3 M176.7,54.8h1.7v-8.2c0,0,0.1,0,0.3-0.1
	c0.1,0,0.3,0,0.5-0.1c0.2,0,0.4,0,0.6,0c0.2,0,0.4,0,0.6,0c0.4,0,0.7,0.1,1,0.2c0.3,0.1,0.5,0.3,0.6,0.6c0.2,0.3,0.3,0.6,0.3,1
	c0.1,0.4,0.1,0.9,0.1,1.5v5.1h1.7v-5.4c0-0.4,0-0.8-0.1-1.2c0-0.4-0.1-0.7-0.2-1.1c0.1-0.1,0.4-0.3,0.8-0.4c0.4-0.2,0.9-0.2,1.4-0.2
	c0.4,0,0.8,0.1,1,0.2c0.3,0.1,0.5,0.3,0.6,0.6c0.2,0.3,0.3,0.6,0.3,1c0.1,0.4,0.1,0.9,0.1,1.5v5.1h1.7v-5.4c0-0.6,0-1.2-0.1-1.8
	c-0.1-0.5-0.3-1-0.5-1.4c-0.3-0.4-0.6-0.7-1.1-0.9c-0.5-0.2-1.1-0.3-1.8-0.3c-0.4,0-0.7,0-1.1,0.1c-0.3,0.1-0.6,0.2-0.9,0.3
	c-0.3,0.1-0.5,0.2-0.7,0.3c-0.2,0.1-0.3,0.2-0.4,0.3c-0.3-0.3-0.6-0.6-1.1-0.7c-0.4-0.2-0.9-0.3-1.6-0.3c-0.9,0-1.6,0.1-2.3,0.2
	c-0.7,0.1-1.2,0.2-1.6,0.3V54.8z M172.1,52.5c-0.5,0.6-1.2,1-2,1c-0.8,0-1.5-0.3-2-1c-0.5-0.6-0.7-1.5-0.7-2.6c0-1.1,0.2-2,0.7-2.6
	c0.5-0.6,1.2-1,2-1c0.8,0,1.5,0.3,2,1c0.5,0.6,0.7,1.5,0.7,2.6C172.8,51,172.6,51.9,172.1,52.5 M174.3,47.8
	c-0.2-0.6-0.5-1.2-0.9-1.6c-0.4-0.4-0.9-0.8-1.4-1c-0.6-0.2-1.2-0.4-1.8-0.4c-0.7,0-1.3,0.1-1.8,0.4c-0.6,0.2-1,0.6-1.4,1
	c-0.4,0.4-0.7,1-0.9,1.6c-0.2,0.6-0.3,1.3-0.3,2.1c0,0.8,0.1,1.5,0.3,2.1c0.2,0.6,0.5,1.2,0.9,1.6c0.4,0.4,0.9,0.8,1.4,1
	c0.6,0.2,1.2,0.4,1.8,0.4c0.7,0,1.3-0.1,1.8-0.4c0.6-0.2,1-0.6,1.4-1c0.4-0.4,0.7-1,0.9-1.6c0.2-0.6,0.3-1.3,0.3-2.1
	C174.6,49.2,174.5,48.5,174.3,47.8 M163,54.9c0.3,0,0.5-0.1,0.8-0.1c0.2,0,0.4-0.1,0.6-0.1c0.2-0.1,0.3-0.1,0.4-0.2l-0.2-1.5
	c-0.2,0.1-0.5,0.2-0.9,0.3c-0.4,0.1-0.8,0.1-1.2,0.1c-0.6,0-1.1-0.1-1.5-0.3c-0.4-0.2-0.7-0.4-1-0.7c-0.3-0.3-0.4-0.7-0.6-1.1
	c-0.1-0.4-0.2-0.9-0.2-1.4c0-1.2,0.3-2.1,0.8-2.7c0.5-0.6,1.3-0.9,2.2-0.9c0.4,0,0.7,0,1.1,0.1c0.3,0.1,0.6,0.2,0.9,0.3l0.4-1.5
	c-0.4-0.2-0.8-0.3-1.2-0.4c-0.4-0.1-0.9-0.1-1.3-0.1c-0.7,0-1.3,0.1-1.9,0.4c-0.6,0.3-1.1,0.6-1.5,1.1c-0.4,0.5-0.7,1-0.9,1.6
	c-0.2,0.6-0.3,1.3-0.3,2c0,0.7,0.1,1.4,0.3,2c0.2,0.6,0.5,1.1,0.9,1.6c0.4,0.4,0.9,0.8,1.5,1c0.6,0.2,1.3,0.4,2.1,0.4
	C162.5,55,162.7,55,163,54.9 M151.7,47.8c-0.2-0.6-0.6-1.2-1-1.6c-0.4-0.4-0.9-0.8-1.5-1c-0.6-0.2-1.3-0.4-2-0.4
	c-0.8,0-1.5,0.1-2.1,0.2c-0.6,0.1-1.1,0.2-1.5,0.3v12.8h1.7v-3.9c0.2,0.1,0.5,0.3,1,0.4c0.4,0.1,0.9,0.2,1.5,0.2
	c0.7,0,1.3-0.1,1.9-0.4s1-0.6,1.4-1c0.4-0.4,0.7-1,0.8-1.6c0.2-0.6,0.3-1.3,0.3-2C152,49.2,151.9,48.5,151.7,47.8 M150.1,51.3
	c-0.1,0.4-0.3,0.8-0.5,1.1c-0.2,0.3-0.5,0.6-0.9,0.7c-0.4,0.2-0.8,0.3-1.3,0.3c-0.5,0-0.9-0.1-1.3-0.2c-0.4-0.2-0.7-0.3-0.9-0.5
	v-6.1c0.2,0,0.4-0.1,0.7-0.1c0.3,0,0.7-0.1,1.2-0.1c0.9,0,1.7,0.3,2.2,0.9c0.6,0.6,0.8,1.5,0.8,2.6
	C150.2,50.4,150.2,50.9,150.1,51.3 M140.9,45.1h-1.7v8.2c-0.1,0-0.2,0-0.3,0.1c-0.1,0-0.3,0-0.5,0.1c-0.2,0-0.4,0-0.6,0
	c-0.2,0-0.4,0-0.6,0c-0.9,0-1.5-0.3-1.9-0.8c-0.4-0.5-0.6-1.4-0.6-2.5v-5.1h-1.7v5.4c0,0.7,0.1,1.3,0.2,1.8c0.1,0.5,0.4,1,0.7,1.4
	c0.3,0.4,0.7,0.7,1.2,0.9c0.5,0.2,1.1,0.3,1.9,0.3c0.9,0,1.6-0.1,2.3-0.2c0.7-0.1,1.2-0.2,1.6-0.3V45.1z M128.6,52.5
	c-0.5,0.6-1.2,1-2,1c-0.8,0-1.5-0.3-2-1c-0.5-0.6-0.7-1.5-0.7-2.6c0-1.1,0.2-2,0.7-2.6c0.5-0.6,1.2-1,2-1c0.8,0,1.5,0.3,2,1
	c0.5,0.6,0.7,1.5,0.7,2.6C129.3,51,129.1,51.9,128.6,52.5 M130.8,47.8c-0.2-0.6-0.5-1.2-0.9-1.6c-0.4-0.4-0.9-0.8-1.4-1
	c-0.6-0.2-1.2-0.4-1.8-0.4c-0.7,0-1.3,0.1-1.8,0.4c-0.6,0.2-1,0.6-1.4,1c-0.4,0.4-0.7,1-0.9,1.6c-0.2,0.6-0.3,1.3-0.3,2.1
	c0,0.8,0.1,1.5,0.3,2.1c0.2,0.6,0.5,1.2,0.9,1.6c0.4,0.4,0.9,0.8,1.4,1c0.6,0.2,1.2,0.4,1.8,0.4c0.7,0,1.3-0.1,1.8-0.4
	c0.6-0.2,1-0.6,1.4-1c0.4-0.4,0.7-1,0.9-1.6c0.2-0.6,0.3-1.3,0.3-2.1C131.1,49.2,131,48.5,130.8,47.8 M117.3,45.1
	c-0.6,0.1-1.1,0.3-1.5,0.4v9.3h1.7v-8.1c0.1,0,0.3-0.1,0.6-0.1c0.3-0.1,0.6-0.1,1-0.1c0.5,0,0.9,0,1.2,0.1c0.3,0.1,0.5,0.1,0.7,0.2
	l0.3-1.5c-0.1,0-0.2-0.1-0.3-0.1c-0.2,0-0.3-0.1-0.5-0.1c-0.2,0-0.4-0.1-0.6-0.1c-0.2,0-0.4,0-0.5,0
	C118.6,44.9,117.9,44.9,117.3,45.1 M111.6,53.2c-0.2,0-0.4,0.1-0.8,0.2c-0.4,0.1-0.8,0.1-1.3,0.1c-0.7,0-1.4-0.1-1.9-0.4
	c-0.5-0.2-1-0.6-1.4-1.1c-0.4-0.5-0.6-1-0.8-1.6c-0.2-0.6-0.3-1.3-0.3-2.1c0-0.8,0.1-1.5,0.3-2.2c0.2-0.6,0.5-1.2,0.9-1.6
	c0.4-0.4,0.8-0.8,1.4-1c0.5-0.2,1.1-0.4,1.8-0.4c0.6,0,1.2,0.1,1.8,0.2c0.6,0.2,1.1,0.4,1.4,0.6l0.6-1.5c-0.1,0-0.2-0.1-0.4-0.2
	c-0.2-0.1-0.5-0.2-0.8-0.3c-0.3-0.1-0.7-0.2-1.2-0.3c-0.5-0.1-1-0.1-1.6-0.1c-0.9,0-1.7,0.1-2.4,0.4c-0.8,0.3-1.4,0.7-2,1.3
	c-0.6,0.6-1,1.3-1.3,2.1c-0.3,0.8-0.5,1.8-0.5,2.9s0.1,2,0.4,2.9c0.3,0.8,0.7,1.5,1.2,2.1c0.5,0.6,1.2,1,1.9,1.3
	c0.7,0.3,1.6,0.4,2.5,0.4c0.4,0,0.9,0,1.3-0.1c0.4,0,0.8-0.1,1.2-0.2c0.4-0.1,0.7-0.1,1-0.2c0.3-0.1,0.5-0.1,0.6-0.2v-6h-1.8V53.2z
	 M87.4,46.2c0.2-0.6,0.5-1.2,0.8-1.6c0.4-0.4,0.8-0.8,1.3-1c0.5-0.2,1.1-0.4,1.8-0.4c0.7,0,1.2,0.1,1.8,0.4c0.5,0.2,1,0.6,1.3,1
	c0.4,0.4,0.6,1,0.8,1.6c0.2,0.6,0.3,1.3,0.3,2.1s-0.1,1.5-0.3,2.1c-0.2,0.6-0.5,1.2-0.8,1.6c-0.4,0.4-0.8,0.8-1.3,1
	c-0.5,0.2-1.1,0.4-1.8,0.4c-0.7,0-1.3-0.1-1.8-0.4c-0.5-0.2-1-0.6-1.3-1c-0.4-0.4-0.6-1-0.8-1.6c-0.2-0.6-0.3-1.3-0.3-2.1
	S87.2,46.8,87.4,46.2 M85.7,51.2c0.3,0.8,0.8,1.5,1.3,2.1c0.6,0.6,1.2,1,2,1.3c0.8,0.3,1.5,0.4,2.4,0.4c0.8,0,1.6-0.1,2.4-0.4
	c0.7-0.3,1.4-0.7,1.9-1.3c0.6-0.6,1-1.3,1.3-2.1c0.3-0.8,0.5-1.8,0.5-2.9c0-1.1-0.2-2.1-0.5-2.9c-0.3-0.8-0.8-1.5-1.3-2.1
	c-0.6-0.6-1.2-1-1.9-1.3c-0.7-0.3-1.5-0.4-2.4-0.4c-0.8,0-1.6,0.1-2.4,0.4c-0.8,0.3-1.4,0.7-2,1.3c-0.6,0.6-1,1.3-1.3,2.1
	c-0.3,0.8-0.5,1.8-0.5,2.9C85.2,49.4,85.4,50.4,85.7,51.2 M79.5,43.4c0.4,0.1,0.8,0.2,1.1,0.4c0.3,0.2,0.6,0.4,0.8,0.8
	c0.2,0.3,0.3,0.7,0.3,1.2c0,0.5-0.1,0.9-0.3,1.3c-0.2,0.3-0.4,0.6-0.8,0.7c-0.3,0.2-0.8,0.3-1.3,0.4c-0.5,0.1-1.1,0.1-1.7,0.1h-1.3
	v-4.9c0.4,0,1-0.1,1.8-0.1C78.6,43.3,79.1,43.4,79.5,43.4 M82.9,48c0.5-0.6,0.7-1.3,0.7-2.2c0-1.4-0.5-2.4-1.4-3.1
	c-0.9-0.7-2.3-1-4.1-1c-0.5,0-1.1,0-1.7,0.1c-0.6,0-1.2,0.1-1.7,0.3v12.7h1.8v-5H78h0.5c0.2,0,0.3,0,0.5,0c0.2,0.3,0.5,0.6,0.8,1
	c0.3,0.4,0.6,0.8,0.9,1.2c0.3,0.4,0.6,0.9,0.9,1.4c0.3,0.5,0.6,1,0.8,1.4h2c-0.2-0.5-0.5-1-0.8-1.5c-0.3-0.5-0.6-1-1-1.5
	c-0.3-0.5-0.6-0.9-0.9-1.3c-0.3-0.4-0.6-0.7-0.8-1C81.8,49.1,82.4,48.6,82.9,48 M69.9,54.8h1.8V41.9h-1.8V54.8z M60.1,50
	c0.4-1.1,0.8-2.1,1.2-3.1c0.4-1,0.8-2,1.2-2.9c0.4,0.9,0.8,1.9,1.2,2.9c0.4,1,0.8,2.1,1.2,3.1H60.1z M68.6,54.8
	c-0.5-1.4-1-2.6-1.4-3.8c-0.4-1.2-0.9-2.3-1.3-3.3c-0.4-1-0.8-2-1.2-3c-0.4-0.9-0.8-1.9-1.3-2.8h-1.7c-0.4,0.9-0.9,1.9-1.3,2.8
	c-0.4,0.9-0.8,1.9-1.2,3c-0.4,1-0.8,2.1-1.3,3.3c-0.4,1.2-0.9,2.4-1.4,3.8h1.9l1.2-3.3h5.8c0.2,0.6,0.4,1.1,0.6,1.6
	c0.2,0.5,0.4,1.1,0.6,1.6H68.6z M43.6,54.8h1.7v-8.2c0.1,0,0.2,0,0.3-0.1c0.1,0,0.3,0,0.5-0.1c0.2,0,0.4,0,0.6,0c0.2,0,0.4,0,0.6,0
	c0.5,0,0.8,0.1,1.2,0.2c0.3,0.1,0.6,0.3,0.7,0.6c0.2,0.3,0.3,0.6,0.4,1c0.1,0.4,0.1,0.9,0.1,1.5v5.1h1.7v-5.4c0-0.7-0.1-1.3-0.2-1.8
	c-0.1-0.5-0.3-1-0.6-1.4c-0.3-0.4-0.7-0.7-1.2-0.9c-0.5-0.2-1.1-0.3-1.9-0.3c-0.9,0-1.6,0.1-2.3,0.2c-0.7,0.1-1.2,0.2-1.6,0.3V54.8z
	 M33.9,50c0.4-1.1,0.8-2.1,1.2-3.1c0.4-1,0.8-2,1.2-2.9c0.4,0.9,0.8,1.9,1.2,2.9c0.4,1,0.8,2.1,1.2,3.1H33.9z M42.4,54.8
	c-0.5-1.4-1-2.6-1.4-3.8c-0.4-1.2-0.9-2.3-1.3-3.3c-0.4-1-0.8-2-1.2-3c-0.4-0.9-0.8-1.9-1.3-2.8h-1.7c-0.4,0.9-0.9,1.9-1.3,2.8
	c-0.4,0.9-0.8,1.9-1.2,3c-0.4,1-0.8,2.1-1.3,3.3c-0.4,1.2-0.9,2.4-1.4,3.8h1.9l1.2-3.3h5.8c0.2,0.6,0.4,1.1,0.6,1.6
	c0.2,0.5,0.4,1.1,0.6,1.6H42.4z"/>
<g>
	<path d="M216.3,36.9l9-26.9h-15.9L212.6,0h46l-3.4,10.1h-15.9l-9,26.9H216.3z"/>
	<path d="M159.6,0h15.8l14.4,21l7-21h14l-12.3,36.9h-14.1l-15.7-22.4l-7.5,22.4h-14L159.6,0z"/>
	<path d="M100.4,17.6L106.2,0h14.1l-5.5,16.5c-0.4,1.3-0.6,2.4-0.7,3.5c0,1.1,0.2,2.1,0.6,3.1c0.4,1,1.3,1.8,2.7,2.4
		c1.4,0.6,3.2,0.9,5.4,0.9c2.2,0,4.2-0.3,5.9-0.9c1.8-0.6,3.2-1.4,4.3-2.4c1.1-1,2-2.1,2.7-3.1c0.7-1.1,1.2-2.2,1.7-3.5L143,0h14.1
		l-5.9,17.6c-0.6,1.7-1.3,3.3-2.1,4.9c-0.9,1.6-2.1,3.3-3.8,5.2c-1.7,1.9-3.6,3.5-5.8,4.9c-2.2,1.4-4.9,2.6-8.3,3.5
		c-3.4,0.9-7,1.4-11,1.4h-2c-4.1,0-7.5-0.5-10.3-1.4c-2.8-0.9-4.8-2.1-6-3.5c-1.2-1.4-2.1-3-2.5-4.9c-0.4-1.9-0.5-3.6-0.3-5.2
		C99.4,20.9,99.8,19.3,100.4,17.6z"/>
	<path d="M81.4,36.9l-0.9-6H59.4l-4.8,6H40.3L70.9,0h19l7,36.9H81.4z M79.1,21.7L77.1,9L66.8,21.7H79.1z"/>
	<path d="M21.5,37.5h-3c-3.3,0-6.2-0.4-8.5-1.1c-2.3-0.8-4-1.7-5-2.9c-1.1-1.1-1.8-2.5-2.2-4.1c-0.4-1.6-0.5-3-0.3-4.4
		c0.2-1.3,0.5-2.7,1-4.2l0.1-0.3h13.8c-1,4.2,1,6.4,6,6.4h0.4c2.8,0,5.2-0.7,7-2.2c1.8-1.5,3.1-3.5,4-6.1L41,0h14.1l-6.3,18.9
		c-0.4,1.2-0.9,2.4-1.4,3.5c-0.5,1.1-1.2,2.3-2,3.5c-0.8,1.3-1.7,2.4-2.7,3.5c-1,1.1-2.2,2.1-3.6,3.1c-1.4,1-3,1.9-4.6,2.6
		c-1.7,0.7-3.6,1.3-5.8,1.7C26.4,37.3,24,37.5,21.5,37.5z"/>
	<path class="st1" d="M241,0C155.7,29.5,55.3,27.5,1.4,31.1C69.2,28.3,152.5,32.8,252.6,0H241z"/>
</g>
</svg>
