<?xml version="1.0" encoding="utf-8"?>
<!-- Generator: Adobe Illustrator 24.2.1, SVG Export Plug-In . SVG Version: 6.00 Build 0)  -->
<svg version="1.1" id="Layer_1" xmlns="http://www.w3.org/2000/svg" xmlns:xlink="http://www.w3.org/1999/xlink" x="0px" y="0px"
	 viewBox="0 0 600 126" style="enable-background:new 0 0 600 126;" xml:space="preserve">
<g>
	<g>
		<rect x="262.88" y="42.06" width="10.78" height="64.67"/>
		<rect x="376.05" y="42.06" width="10.78" height="64.67"/>
		<path d="M203.61,94.87l0-52.81h-10.78v45.8c0,10.42,8.44,18.86,18.86,18.86h24.25V95.95h-31.25
			C204.09,95.95,203.61,95.47,203.61,94.87z"/>
		<path d="M316.77,94.87V42.06h-10.78v45.8c0,10.42,8.44,18.86,18.86,18.86h24.25V95.95h-31.25
			C317.25,95.95,316.77,95.47,316.77,94.87z"/>
		<path d="M462.27,94.87c0,0.6-0.48,1.08-1.08,1.08h-30.18c-0.59,0-1.08-0.48-1.08-1.08l0-52.81h-10.78v45.8
			c0,10.42,8.44,18.86,18.86,18.86h16.17c10.42,0,18.86-8.44,18.86-18.86v-45.8h-10.78L462.27,94.87z"/>
		<path d="M578.13,42.06h-16.17c-4.26,0-6.49,0.89-8.33,1.93c-1.84,1.04-3.55,2.73-4.66,4.73h-0.01c-0.09,0.17-0.27,0.28-0.47,0.28
			c-0.2,0-0.38-0.11-0.47-0.28h0c-1.12-2-2.83-3.69-4.67-4.73c-1.84-1.04-4.07-1.93-8.33-1.93c-4.26,0-16.16,0-16.16,0
			c-10.42,0-18.86,8.45-18.86,18.86v45.8h10.78V53.92c0-0.59,0.48-1.08,1.08-1.08h30.18c0.6,0,1.08,0.48,1.08,1.08v52.81h10.78
			V53.92c0-0.59,0.48-1.08,1.08-1.08h30.18c0.6,0,1.08,0.48,1.08,1.08v52.81h10.78v-45.8C596.99,50.51,588.54,42.06,578.13,42.06z"
			/>
		<path d="M102.76,61.74l-6.93,13.47h44.19c7.31,0,13.65-4.16,16.78-10.24l6.93-13.47h-44.19C112.23,51.5,105.89,55.66,102.76,61.74
			z"/>
		<path d="M110.92,83.28H95.83l4.09,7.96c1.85,3.59,5.6,6.05,9.92,6.05h15.09l-4.1-7.96C118.98,85.74,115.24,83.28,110.92,83.28z"/>
		<path d="M77.89,75.21h8.96c4.21-8.08,8.5-16.39,9.12-17.78c5.85-11.96,1.51-26.24-2.79-35.73c-3.58-7.91-8.69-15.6-10.3-17.95
			L82.37,3l-0.51,0.75c-1.61,2.35-6.72,10.04-10.3,17.95c-4.3,9.49-8.64,23.77-2.79,35.73C69.38,58.83,73.68,67.14,77.89,75.21z"/>
		<path d="M87.59,83.28H77.15c-0.6,1.12-1.69,3.17-2.49,4.88c-3.43,7.36-1.13,12.37,1.6,19.8c1,2.72,4.73,10.26,5.81,12.44l0.3,0.6
			l0.3-0.6c1.08-2.18,4.8-9.71,5.81-12.44c2.74-7.43,5.03-12.44,1.6-19.8C89.29,86.46,88.2,84.41,87.59,83.28z"/>
		<path d="M45.2,51.5H1.01l6.93,13.47c3.13,6.08,9.47,10.24,16.78,10.24h44.19l-6.93-13.47C58.85,55.66,52.51,51.5,45.2,51.5z"/>
		<path d="M43.91,89.33l-4.1,7.96H54.9c4.32,0,8.07-2.46,9.92-6.05l4.09-7.96H53.82C49.5,83.28,45.76,85.74,43.91,89.33z"/>
	</g>
</g>
</svg>
