<?xml version="1.0" encoding="UTF-8" standalone="no"?>
<svg width="272px" height="45px" viewBox="0 0 272 45" version="1.1" xmlns="http://www.w3.org/2000/svg" xmlns:xlink="http://www.w3.org/1999/xlink">
    <!-- Generator: Sketch 3.7.2 (28276) - http://www.bohemiancoding.com/sketch -->
    <title>Lycoming_Type_Mark_Black_TM</title>
    <desc>Created with Sketch.</desc>
    <defs></defs>
    <g id="Styles" stroke="none" stroke-width="1" fill="none" fill-rule="evenodd">
        <g id="Style-Guide" transform="translate(-936.000000, -62.000000)">
            <g id="Lycoming_Type_Mark_Black_TM" transform="translate(936.000000, 62.000000)">
                <polyline id="Fill-1" fill="#0A0A08" points="63.5632094 11 75.0954574 11 68.5768345 26.2387466 79 26.2387466 76.9619146 31 55 31 63.5632094 11"></polyline>
                <polyline id="Fill-2" fill="#0A0A08" points="81.6638487 24.2193484 78 11 89.7926552 11 89.7920189 18.003233 89.8702845 18.003233 95.5919462 11 106 11 92.9570039 24.2193484 90.1158986 31 78.8176529 31 81.6638487 24.2193484"></polyline>
                <path d="M116.497731,17.5656338 L117.23553,15.7635602 C117.644119,14.7665769 117.187533,14.1035614 115.567329,14.1035614 C113.952048,14.1035614 112.953343,14.7665769 112.547215,15.7635602 L108.66131,25.24013 C108.252721,26.2383435 108.709307,26.902589 110.329511,26.902589 C111.943561,26.902589 112.945958,26.2383435 113.355778,25.24013 L114.239414,23.081332 L124.994417,23.081332 C123.203762,27.4579721 119.691987,31 108.649619,31 C97.4103392,31 96.4497854,28.0127402 99.481591,20.4987699 C102.807532,12.3869787 106.65467,10 117.206608,10 C128.045913,10 129.128921,12.9934103 127.255195,17.5656338 L116.497731,17.5656338" id="Fill-3" fill="#0A0A08"></path>
                <path d="M145.302819,15.7635602 L141.407901,25.24013 C140.9983,26.2383435 139.986055,26.902589 138.36374,26.902589 C136.735237,26.902589 136.280469,26.2383435 136.693782,25.24013 L140.591175,15.7635602 C141.004488,14.7665769 142.00869,14.1035614 143.632861,14.1035614 C145.264457,14.1035614 145.718607,14.7665769 145.302819,15.7635602 L145.302819,15.7635602 Z M145.325712,10 C134.707034,10 130.838721,12.3869787 127.498806,20.4987699 C124.157653,28.6191717 126.06211,31 136.678314,31 C147.290805,31 151.155405,28.6191717 154.499651,20.4987699 C157.844516,12.3869787 155.935109,10 145.325712,10 L145.325712,10 Z" id="Fill-4" fill="#0A0A08"></path>
                <polyline id="Fill-5" fill="#0A0A08" points="161.195065 11 177.080788 11 174.64095 22.9621985 174.7163 22.9621985 182.446812 11 198 11 189.801198 31 180.549368 31 186.800908 15.7612534 186.718085 15.7612534 176.128018 31 166.656989 31 168.556924 15.7612534 168.474102 15.7612534 162.245603 31 153 31 161.195065 11"></polyline>
                <polyline id="Fill-6" fill="#0A0A08" points="200.088062 11 211 11 202.899644 31 192 31 200.088062 11"></polyline>
                <g id="Group-11">
                    <polyline id="Fill-7" fill="#0A0A08" points="213.444493 11.195625 227.834468 11.195625 229.099134 23.36 229.190095 23.36 234.184148 11.195625 243.67103 11.195625 235.408039 31.300625 221.094597 31.300625 219.617271 19.44375 219.54262 19.44375 214.66462 31.300625 205.18213 31.300625 213.444493 11.195625"></polyline>
                    <path d="M264.727479,31.300625 L258.746032,31.300625 L258.783671,28.40125 L258.705257,28.40125 C256.910509,30.456875 254.083829,31.915625 247.566028,31.915625 C241.465391,31.915625 237.695229,30.060625 240.055187,24.318125 L242.149164,19.220625 C244.541743,13.393125 249.325019,10.575625 259.842579,10.575625 C264.25072,10.575625 273.104014,11.195625 270.543315,17.445625 L259.657521,17.445625 L260.165646,16.204375 C260.513806,15.364375 260.261625,14.688125 257.821998,14.688125 C256.298877,14.688125 255.080005,15.251875 254.435752,16.79875 L250.800463,25.668125 C250.028238,27.525 250.992421,27.805625 252.803479,27.805625 C254.285824,27.805625 255.703556,27.36 256.265002,26.00625 L256.752426,24.8275 L254.192981,24.8275 L255.886104,20.71125 L269.074771,20.71125 L264.727479,31.300625" id="Fill-9" fill="#0A0A08"></path>
                    <path d="M34.8824676,34.633125 L7.32829167,34.633125 C11.5087176,30.665 17.1739977,28.2475 23.4019792,28.2575 L37.5021343,28.2575 L34.8824676,34.633125 L34.8824676,34.633125 Z M17.6639306,7.858125 L32.4829884,7.858125 L26.6408056,22.081875 C25.1829259,22.253125 23.7156366,22.541875 22.2489745,22.935 C16.6815556,24.436875 11.8713056,27.334375 8.09298843,31.145625 L17.6639306,7.858125 L17.6639306,7.858125 Z M44.715,7.3125 C37.9782662,-1.748125 23.2507963,-2.24375 11.8280208,6.191875 C0.402108796,14.630625 -3.40506481,28.811875 3.32790509,37.868125 C10.0671481,46.920625 24.7939907,47.4225 36.2205301,38.9875 C47.6470694,30.55125 51.4504792,16.36875 44.715,7.3125 L44.715,7.3125 Z" id="Fill-10" fill="#C32537"></path>
                </g>
                <polyline id="Fill-12" fill="#0A0A08" points="268 29 270 29 270 29.3022408 269.214286 29.3022408 269.214286 31 268.781853 31 268.781853 29.3022408 268 29.3022408 268 29"></polyline>
                <polyline id="Fill-13" fill="#0A0A08" points="270 29 270.475402 29 271.007028 30.5659197 271.01255 30.5659197 271.53012 29 272 29 272 31 271.678715 31 271.678715 29.4564878 271.673193 29.4564878 271.139056 31 270.860944 31 270.326807 29.4564878 270.321285 29.4564878 270.321285 31 270 31 270 29"></polyline>
            </g>
        </g>
    </g>
</svg>