<svg xmlns="http://www.w3.org/2000/svg" width="142" height="44" viewBox="0 0 142 44">
  <g id="Group_3" data-name="Group 3" transform="translate(-1039 -285)">
    <rect id="Rectangle_3" data-name="Rectangle 3" width="142" height="44" transform="translate(1039 285)" fill="none"/>
    <g id="Group_90" data-name="Group 90" transform="translate(900 253)">
      <g id="magnix" transform="translate(140 33)">
        <rect id="backgroundrect" width="140" height="42.123" fill="none"/>
        <g id="Group_89" data-name="Group 89">
          <g id="svg_1">
            <path id="svg_2" d="M.957,89.436s-5.011-11.6,7.9-17.636v5.206S1.524,80.937,5.72,89.436Z" transform="translate(0 -59.214)" fill="#ec1f31"/>
            <path id="svg_3" d="M110.4,89.436s5.011-11.6-7.9-17.636v5.206s7.331,3.931,3.134,12.43Z" transform="translate(-84.355 -59.214)" fill="#ec1f31"/>
            <rect id="svg_4" width="4.568" height="12.147" transform="translate(11.121 11.907)" fill="#ec1f31"/>
            <path id="svg_5" d="M306.6,86.062v-18.2h-4.04v1.5a8.926,8.926,0,0,0-5.188-1.664,9.244,9.244,0,1,0,0,18.488,8.583,8.583,0,0,0,2.444-.356V81.264a4.75,4.75,0,0,1-2.072.478,4.834,4.834,0,1,1,4.8-5.011l.018,3.364v5.79a1.743,1.743,0,0,1-.124.6,2.123,2.123,0,0,1-.142.354l-.213.425c-.089.159-.177.319-.283.478a3.289,3.289,0,0,1-.372.5,3.938,3.938,0,0,1-.46.478,4.438,4.438,0,0,1-.567.443,5.1,5.1,0,0,1-.673.39,5.229,5.229,0,0,1-1.718.478,1.377,1.377,0,0,0-.283.035V94.51s4.338.372,7.614-4.2A5.689,5.689,0,0,0,306.6,86.062Z" transform="translate(-237.599 -55.959)" fill="#ec1f31"/>
            <path id="svg_6" d="M422.344,67.895h-.5a9,9,0,0,0-4.374,1.151V67.7H412.9V86.08h4.622V76.872a4.657,4.657,0,0,1,9.314,0V86.1h4.409V76.837a8.91,8.91,0,0,0-8.9-8.942Z" transform="translate(-340.284 -55.837)" fill="#ec1f31"/>
            <path id="svg_7" d="M541.673,86.015h-4.25L537.406,67.6h4.232Z" transform="translate(-442.821 -55.754)" fill="#ec1f31"/>
            <path id="svg_8" d="M625.075.035,619.2,0,601.05,18.044,594.87,11.9l-5.861.053,9.048,9.066-9.048,9,6.02.07,6.056-6.038L619.037,42l6.038-.07-21-20.878Z" transform="translate(-485.532)" fill="#6e6f72"/>
            <g id="svg_9" transform="translate(29.426 11.863)">
              <path id="svg_10" d="M178.816,81.264a4.751,4.751,0,0,1-2.072.478,4.834,4.834,0,1,1,4.8-5.011l.018,3.364v5.967H185.6v-18.2h-4.04v1.5a8.926,8.926,0,0,0-5.188-1.664,9.244,9.244,0,1,0,0,18.488,8.584,8.584,0,0,0,2.444-.356Z" transform="translate(-167.306 -67.7)" fill="#ec1f31"/>
            </g>
          </g>
        </g>
      </g>
    </g>
  </g>
</svg>
