<svg xmlns="http://www.w3.org/2000/svg" xmlns:xlink="http://www.w3.org/1999/xlink" width="70" height="62" version="1.1">
  <defs/>
  <defs>
    <path id="a" d="M0 .099h70v61.765H0z"/>
  </defs>
  <g fill="none" fill-rule="evenodd" stroke="none" stroke-width="1">
    <path fill="#FFF" d="M67.556 59.357l-.02.02.02-.02"/>
    <g transform="translate(0 .038)">
      <mask id="b" fill="#fff">
        <use xlink:href="#a"/>
      </mask>
      <path fill="#FFF" d="M10.645 23.56c0-11.33 5.767-20.193 13.801-20.193 8.034 0 13.8 8.863 13.8 20.193 0 11.33-5.766 20.193-13.8 20.193s-13.8-8.863-13.8-20.193m53.893 31.214c-10.756 0-28.18-5.687-33.549-7.884a.137.137 0 01-.085-.128v-.035c4.315-1.341 7.615-3.13 11.36-6.897 3.807-3.768 6.663-9.963 6.536-16.797.127-5.748-1.777-11.56-6.092-16.094C38.774 2.787 33.062-.023 24.05.105c-4.95-.128-11.74 1.724-16.69 6.259C2.793 10.643 0 16.774 0 23.672c0 7.089 2.729 12.9 6.029 16.35 5.838 6.13 13.263 6.96 14.469 7.6 10.343 5.492 16.943 8.302 24.241 10.857 8.948 3.065 12.946 3.385 16.119 3.385 3.17 0 5.245-1.115 6.678-2.524l.02-.02c.164-.162.319-.328.466-.497 1.286-1.507 1.806-3.367 1.974-4.124a.154.154 0 00-.172-.186c-1.386.217-3.133.261-5.285.261" mask="url(#b)"/>
    </g>
    <path fill="#FFF" d="M56.834 17.743a.138.138 0 00-.137.138V45.14c0 .076.061.138.137.138h9.182a.138.138 0 00.137-.138V17.88a.138.138 0 00-.137-.138h-9.182zM61.425 13.19c2.845 0 5.151-2.322 5.151-5.185 0-2.863-2.306-5.184-5.151-5.184-2.845 0-5.151 2.32-5.151 5.184 0 2.863 2.306 5.184 5.15 5.184"/>
  </g>
</svg>