<svg id="图层_1" data-name="图层 1" xmlns="http://www.w3.org/2000/svg" xmlns:xlink="http://www.w3.org/1999/xlink" viewBox="0 0 302.66 73.58"><defs><style>.cls-1,.cls-2,.cls-3,.cls-4,.cls-5,.cls-6,.cls-7{fill-rule:evenodd;}.cls-1{fill:url(#GradientFill_1);}.cls-2{fill:url(#GradientFill_1-2);}.cls-3{fill:url(#GradientFill_1-3);}.cls-4{fill:url(#GradientFill_1-4);}.cls-5{fill:url(#GradientFill_1-5);}.cls-6{fill:#d46611;}.cls-7{fill:#eda000;}</style><linearGradient id="GradientFill_1" x1="9.34" y1="26.99" x2="45.23" y2="43.57" gradientUnits="userSpaceOnUse"><stop offset="0" stop-color="#f8b41c"/><stop offset="0.01" stop-color="#f8b41c"/><stop offset="0.61" stop-color="#d46a10"/><stop offset="1" stop-color="#d46a10"/></linearGradient><linearGradient id="GradientFill_1-2" x1="11.98" y1="8.91" x2="60.88" y2="65.29" xlink:href="#GradientFill_1"/><linearGradient id="GradientFill_1-3" x1="59.98" y1="7.99" x2="62.62" y2="24.78" xlink:href="#GradientFill_1"/><linearGradient id="GradientFill_1-4" x1="53.3" y1="21.58" x2="58.72" y2="41.61" xlink:href="#GradientFill_1"/><linearGradient id="GradientFill_1-5" x1="52.36" y1="35.87" x2="59.82" y2="56.61" xlink:href="#GradientFill_1"/></defs><title>未标题-1</title><path class="cls-1" d="M14.52,21.63l9.59,5.17C18.76,39,21.8,52.47,32,62.18h0c.44.42.89.82,1.34,1.2-7.93-10.86-8-36.57,9.48-46.2Z"/><path class="cls-2" d="M13.72,8.11A36.85,36.85,0,0,0,8.11,59.86h0a36.85,36.85,0,0,0,51.75,5.61h0A36.56,36.56,0,0,0,71.27,49.63h0c-3-.06-5.68,0-8.06.11h0a30.17,30.17,0,0,1-9,12h0a30.4,30.4,0,0,1-42.69-4.63h0a30.4,30.4,0,0,1,4.63-42.69h0a30.41,30.41,0,0,1,33.49-3h0A53.19,53.19,0,0,1,58.42,7h0A36.92,36.92,0,0,0,36.75,0h0A36.61,36.61,0,0,0,13.72,8.11Z"/><path class="cls-3" d="M83.17,7h-.08c-7.66,0-31.5,1.52-44,19.58,7.64-6,21.39-13.45,42.41-12.09h0l2.18-7.49h-.49Z"/><path class="cls-4" d="M46.4,26.11c-7.68,3.95-12.21,11.25-13,17.84h0a26.33,26.33,0,0,0-.06,3c3.49-12,19.36-19.4,44-18.14h0l1.56-5.37.89-3.12q-2.88-.19-5.56-.18h0C61.46,20.11,52.28,23.09,46.4,26.11Z"/><path class="cls-5" d="M38,44.7c-3.16,3.14-4.4,8.94-.45,15.58h0c.69,1,1.38,1.87,2,2.6h0S30.07,43.6,72.73,44.63h0l3-10.32c-.89,0-1.79,0-2.67,0h0C58.1,34.27,44.85,37.91,38,44.7Z"/><path class="cls-6" d="M267.77,49.57c-4.16,0-4.16-7.81,0-7.81H267c-11.47,0-16,6-17.11,8.91v9.88h42.71l5.17-11Z"/><path class="cls-6" d="M152.78,35.82c0-7.12,4.57-12.84,11.89-12.84H185l5.18-11H160.86c-13.12,0-22.47,10.64-22.47,23.77,0,12.19,7.13,24.8,20.32,24.8h19.74l5.13-10.87H163.12C155.8,49.69,152.78,42.1,152.78,35.82Z"/><polygon class="cls-6" points="89.78 11.98 89.78 22.98 106.73 22.98 106.73 60.56 121.8 60.56 121.8 22.98 136.65 22.98 141.83 11.98 89.78 11.98"/><path class="cls-7" d="M266.25,12c-12.21,0-16.51,6.87-16.51,23,1.35-5,7.12-12,17.3-12H297.5l5.17-11Z"/><polygon class="cls-6" points="207.04 11.98 184.14 60.56 198.53 60.56 215.52 25.01 225.16 49.69 209.35 49.69 204.22 60.56 245.87 60.56 224.67 11.98 207.04 11.98"/><path class="cls-7" d="M267,31.12c-10.06,0-17.09,7.23-17.09,19.55,1.14-2.89,5.63-8.91,17.11-8.91h22.74l5.17-10.64Z"/></svg>