<svg xmlns="http://www.w3.org/2000/svg" viewBox="0 0 223.61 42.54"><g id="图层_2" data-name="图层 2"><g id="Layer_1" data-name="Layer 1"><polygon points="12.99 0 12.99 10.99 16.41 10.99 16.41 3.59 130.85 3.59 130.85 10.99 134.27 10.99 134.27 0 12.99 0" style="fill:#d51c19"/><path d="M13.18,41.49,0,18.63H4.46L14.7,36.37,24.93,18.63H29.4L16.21,41.49Z" style="fill:#231814"/><path d="M86.07,18.63V37.78h18v3.71H82.46V18.63Z" style="fill:#231814"/><polygon points="147.29 41.49 134.1 18.63 131.08 18.63 117.89 41.49 122.36 41.49 125.41 36.2 125.41 36.2 132.59 23.75 139.78 36.2 139.78 36.2 140.95 38.24 141.64 39.43 141.64 39.43 142.82 41.49 147.29 41.49" style="fill:#231814"/><path d="M164.07,18.63l17.48,17.48V18.63h3.63V41.49H182L164.52,24V41.49h-3.63V18.63Z" style="fill:#231814"/><path d="M223.61,18.63v3.72H213.08V41.49h-3.63V22.35H198.92V18.63Z" style="fill:#231814"/><path d="M54.3,42.54c-9.39,0-13.61-7.22-13.62-12.35A12.4,12.4,0,0,1,44,22,13.49,13.49,0,0,1,54.3,17.82,13.52,13.52,0,0,1,64.6,22a12.34,12.34,0,0,1,3.32,8.19C67.92,35.32,63.69,42.54,54.3,42.54Zm0-21.1a10.09,10.09,0,0,0-7.64,3,8.68,8.68,0,0,0-2.36,5.73c0,3.38,2.72,8.73,10,8.73s10-5.35,10-8.73A8.68,8.68,0,0,0,62,24.46,10.09,10.09,0,0,0,54.3,21.44Z" style="fill:#231814"/></g></g></svg>