<svg enable-background="new 0 0 438 132" viewBox="0 0 438 132" xmlns="http://www.w3.org/2000/svg"><g fill="#54565a"><path d="m179.41 52.52c4.38 0 8.02-3.28 8.02-7.41 0-4.25-3.65-7.41-8.02-7.41-4.38 0-7.9 3.16-7.9 7.41 0 4.13 3.53 7.41 7.9 7.41z"/><path d="m422.63 0-99.79 111.35c-3.52 4.01-6.56 8.14-12.03 8.14-3.28 0-5.47-1.82-7.54-5.11-1.34-2.07-3.16-4.98-4.74-7.66 17.75-3.16 26.5-15.32 26.5-27.23 0-11.3-7.66-17.99-18.48-17.99-8.75 0-16.53 5.96-25.53 15.68 1.58-4.62 3.04-9.36 4.5-13.98l7.54-25.53h-12.28l-14.58 48.64c-13.49 15.07-20.79 21.76-27.23 27.59 1.09-9.72-5.47-17.5-9.97-24.8l-4.5-6.32c-1.7-2.31-1.7-3.89.24-6.2l6.32-7.41h-15.56c-13.74 16.04-26.86 31.72-39.14 44.73-3.52 3.89-5.71 5.11-7.54 5.11-1.7 0-3.52-1.09-2.55-4.38l13.13-45.46h-12.64-15.44l-37.42 43.03c-4.5 5.11-7.17 6.56-10.45 6.56-4.74 0-7.17-2.8-4.98-10.33l11.43-39.26h-14.72l-35.86 43.15c-4.13 4.98-6.81 6.44-10.09 6.44-4.13 0-6.93-2.8-4.74-10.33l11.43-39.26h-6.81-7.28l-42.29 46.78h15.77l22.38-25.26-5.59 17.5c-4.01 12.4 3.52 22.61 15.32 22.61 8.87 0 14.95-3.53 20.3-10.21l23.7-29.78-5.35 17.38c-3.89 12.4 3.53 22.61 15.92 22.61 8.87 0 14.71-3.77 20.3-10.33l44.48-51.29-12.76 44.12c-2.92 10.09 3.4 17.5 13.86 17.5 6.44 0 11.43-3.28 16.17-8.39 9.72-10.7 20.06-22.12 30.14-33.91 3.77 5.83 4.74 7.05 9.48 13.74 2.07 2.92 4.25 6.44 4.25 10.21 0 5.11-4.62 8.14-9.36 8.14-1.09 0-2.07-.12-3.16-.36-.61-.12-1.34-.36-1.94-.61-2.8-1.09-5.23-2.67-7.05-4.98l-7.05 8.51c3.89 4.74 10.94 8.75 21.27 8.75 11.43 0 21.51-5.71 31.36-15.56l8.63-8.63-6.93 22.24h12.15l9.97-33.67 12.03-11.43c6.2-5.83 11.43-11.3 17.02-11.3 5.11 0 7.66 3.28 7.66 8.02 0 5.11-4.01 9.36-9.12 12.15-3.4 1.82-7.17 2.67-12.15 3.16-5.35.49-8.75 5.96-5.83 11.3 2.07 3.89 5.59 10.45 8.75 14.59 3.89 5.11 9.6 8.02 15.56 8.02 11.79 0 15.56-4.86 26.13-16.53l102.46-114.26z"/></g></svg>