<?xml version="1.0" encoding="utf-8"?>
<!-- Generator: Adobe Illustrator 22.1.0, SVG Export Plug-In . SVG Version: 6.00 Build 0)  -->
<svg version="1.1" id="图层_1" xmlns="http://www.w3.org/2000/svg" xmlns:xlink="http://www.w3.org/1999/xlink" x="0px" y="0px"
	 viewBox="0 0 52 21" style="enable-background:new 0 0 52 21;" xml:space="preserve">
<style type="text/css">
	.st0{clip-path:url(#SVGID_2_);fill:#3E3A39;}
	.st1{fill:#3E3A39;}
	.st2{fill:#DB0025;}
</style>
<g>
	<g>
		<defs>
			<rect id="SVGID_1_" x="0" y="0" width="51.9" height="20.9"/>
		</defs>
		<clipPath id="SVGID_2_">
			<use xlink:href="#SVGID_1_"  style="overflow:visible;"/>
		</clipPath>
		<path class="st0" d="M0.3,21h3.9L15.8,0.5c0.1-0.2,0-0.4-0.3-0.4h-3.9L0.1,20.5C0,20.7,0.1,21,0.3,21L0.3,21z"/>
		<path class="st0" d="M6.7,4.4L4.3,0H0.3C0.1,0,0,0.3,0.1,0.5l4.4,7.8L6.7,4.4L6.7,4.4z"/>
	</g>
	<path class="st1" d="M7.9,6.6l-2.2,3.9L11.6,21h3.9c0.2,0,0.4-0.2,0.3-0.4L7.9,6.6L7.9,6.6z"/>
	<path class="st1" d="M42.2,3.6H46c1.1,0,1.9,0.8,2.1,1.8H52v0c0-3-2.4-5.4-5.4-5.4h-5c-3,0-5.4,2.4-5.4,5.4v10.2
		c0,3,2.4,5.4,5.4,5.4h5c3,0,5.4-2.4,5.4-5.4v-3.3V9.8l0,0c0-0.6-0.5-1-1-1h-6.4l-1.8,3.1c-0.1,0.2,0,0.4,0.3,0.4h5.1v3
		c0,1.2-0.9,2.1-2.1,2.1h-3.8c-1.2,0-2.1-0.9-2.1-2.1V5.7C40.1,4.5,41.1,3.6,42.2,3.6L42.2,3.6z"/>
	<path class="st2" d="M16.7,21h4h0.1c2.2-4.6,6.2-8.2,11-10l-0.2-0.5c-6.6,0.6-12.2,4.5-15.2,10l0,0.1C16.3,20.8,16.5,21,16.7,21
		L16.7,21z"/>
	<path class="st1" d="M24.1,11.3l1.7-4.7c0-0.1,0.1-0.1,0.1,0l1.3,3.8c1.4-0.3,2.8-0.5,4.2-0.5l-3.2-9.1c-0.1-0.4-0.5-0.7-1-0.7
		h-2.9c-0.4,0-0.8,0.3-1,0.7L18.7,14c0,0.1,0,0.1,0.1,0.1C20.4,13,22.2,12,24.1,11.3L24.1,11.3z"/>
	<path class="st1" d="M35.1,20.6L32,11.6c-1.4,0.5-2.6,1.2-3.7,2.1l2.5,7.2h4C35.1,21,35.2,20.8,35.1,20.6L35.1,20.6z"/>
</g>
</svg>
